<svg width="273" height="187" viewBox="0 0 273 187" fill="none" xmlns="http://www.w3.org/2000/svg">
<g clip-path="url(#clip0_832_329)">
<path d="M81.2184 153.97C80.2798 165.416 76.8286 175.888 73.1469 185.975C73.0251 186.318 72.8999 186.657 72.7716 187H34.5054C33.7315 186.687 32.9675 186.344 32.2068 185.975C27.8848 183.927 23.8044 180.802 20.1243 176.723C6.04624 160.936 0.628983 131.104 3.07584 104.374C4.5973 87.7667 9.28004 70.8109 18.3987 61.8666C23.2133 57.1356 29.3977 55.5979 34.94 57.356C35.0851 57.397 35.23 57.4482 35.3781 57.4944C40.1465 59.1653 44.3946 63.3171 46.8119 70.0062C51.1587 82.0259 48.5703 96.916 46.4332 110.294C44.3025 123.672 43.1465 139.685 49.3311 149.552C47.2893 140.197 49.3047 129.039 54.1818 122.714C57.8668 117.942 62.9975 116.153 67.6771 117.634C68.1249 117.783 68.5663 117.952 69.0009 118.157C70.0515 118.636 71.0643 119.296 72.0207 120.125C79.3149 126.466 82.2689 141.069 81.2184 153.97Z" fill="#F2F2F2"/>
<path d="M58.5288 185.975C59.5891 186.359 60.6527 186.697 61.723 187H55.937C55.1795 186.682 54.4254 186.344 53.678 185.975C52.0347 185.175 50.4166 184.258 48.8239 183.222C42.4352 179.05 36.5504 172.786 32.0981 164.452C29.9206 160.414 28.1425 155.893 26.8225 151.038C25.3911 145.551 24.4815 139.768 24.1222 133.872C23.3154 121.776 24.1386 109.346 25.6765 97.4644C27.2636 85.15 29.8254 73.1894 33.3034 61.8562C33.7216 60.498 34.1541 59.1482 34.6009 57.8069C34.6316 57.6965 34.6781 57.5985 34.7369 57.5203C34.7957 57.4422 34.8652 57.3859 34.94 57.3559C35.092 57.31 35.2495 57.3598 35.378 57.4943C35.5322 57.632 35.6466 57.8566 35.6975 58.1218C35.7483 58.387 35.7318 58.6724 35.6514 58.9192C32.0654 69.804 29.3471 81.3299 27.5569 93.2408C25.805 104.861 24.8104 117.019 25.1496 128.967C25.4723 140.131 27.3462 151.11 31.5975 160.239C35.4801 168.573 40.8413 175.144 46.7723 179.619C50.5262 182.415 54.4697 184.546 58.5288 185.975V185.975Z" fill="white"/>
<path d="M71.227 187H69.5211C69.33 186.662 69.1456 186.318 68.9646 185.975C65.079 178.627 62.4467 169.872 61.3112 160.521C59.9323 148.851 61.005 136.8 64.3706 126.153C65.3095 123.167 66.4159 120.317 67.6769 117.634C68.1247 117.783 68.5661 117.952 69.0007 118.157C65.684 124.997 63.4532 132.96 62.4902 141.397C61.6311 149.303 61.9167 157.407 63.3262 165.119C64.7357 172.831 67.2336 179.957 70.6375 185.975C70.8284 186.318 71.026 186.662 71.227 187Z" fill="white"/>
<path d="M224.897 178.283C225.145 181.304 226.056 184.067 227.027 186.729C227.059 186.82 227.093 186.909 227.126 187H237.226C237.43 186.917 237.631 186.827 237.832 186.729C238.973 186.189 240.05 185.364 241.021 184.288C244.736 180.121 246.166 172.248 245.52 165.193C245.119 160.811 243.883 156.336 241.476 153.975C240.17 152.736 238.61 152.311 237.111 152.785C237.073 152.795 237.034 152.809 236.995 152.821C236.371 153.009 235.779 153.4 235.259 153.969C234.739 154.539 234.302 155.273 233.978 156.123C232.83 159.295 233.514 163.225 234.078 166.756C234.64 170.287 234.945 174.513 233.313 177.117C233.552 176.028 233.601 174.859 233.454 173.731C233.306 172.603 232.969 171.557 232.476 170.699C231.983 169.841 231.352 169.203 230.648 168.851C229.944 168.498 229.193 168.444 228.471 168.693C228.353 168.732 228.236 168.777 228.122 168.831C227.844 168.957 227.577 169.132 227.325 169.351C225.399 171.024 224.62 174.878 224.897 178.283Z" fill="#F2F2F2"/>
<path d="M230.885 186.729C230.606 186.831 230.325 186.92 230.042 187H231.569C231.769 186.916 231.968 186.827 232.166 186.729C232.599 186.518 233.026 186.276 233.447 186.003C235.152 184.926 236.665 183.227 237.861 181.049C238.436 179.983 238.905 178.79 239.253 177.509C239.631 176.061 239.871 174.535 239.966 172.979C240.139 169.762 240.001 166.523 239.556 163.37C239.137 160.12 238.461 156.963 237.543 153.972C237.432 153.614 237.318 153.258 237.2 152.904C237.192 152.874 237.18 152.849 237.164 152.828C237.149 152.807 237.131 152.792 237.111 152.785C237.071 152.772 237.029 152.786 236.995 152.821C236.955 152.857 236.924 152.917 236.911 152.987C236.898 153.057 236.902 153.132 236.923 153.197C237.87 156.07 238.587 159.112 239.059 162.255C239.546 165.338 239.76 168.511 239.695 171.684C239.66 174.635 239.068 177.506 237.993 179.937C236.947 182.127 235.572 183.884 233.988 185.052C232.997 185.79 231.957 186.352 230.885 186.729Z" fill="white"/>
<path d="M227.534 187H227.984C228.035 186.911 228.083 186.82 228.131 186.729C229.157 184.79 229.851 182.48 230.151 180.012C230.515 176.932 230.232 173.751 229.344 170.941C229.096 170.153 228.804 169.401 228.471 168.693C228.353 168.732 228.236 168.777 228.122 168.831C228.997 170.636 229.586 172.738 229.84 174.964C230.067 177.051 229.991 179.19 229.619 181.225C229.247 183.261 228.588 185.141 227.69 186.729C227.639 186.82 227.587 186.911 227.534 187Z" fill="white"/>
<path d="M133.869 108.925H102.261L101.926 93.7989C101.911 93.1432 101.988 92.4904 102.152 91.8854C102.315 91.2804 102.56 90.7376 102.871 90.2944C103.182 89.8512 103.55 89.518 103.952 89.3179C104.353 89.1178 104.778 89.0555 105.196 89.1352L123.59 92.6409H123.592C126.319 92.6523 128.932 94.3457 130.858 97.35C132.784 100.354 133.867 104.424 133.869 108.669V108.925Z" fill="#A2DE96"/>
<path d="M119.781 55.2698H97.7362C97.443 55.2697 97.1527 55.3594 96.8818 55.534C96.6109 55.7086 96.3648 55.9645 96.1575 56.2872C95.9502 56.6099 95.7857 56.993 95.6736 57.4146C95.5614 57.8362 95.5037 58.2881 95.5038 58.7445V93.0569C95.5037 93.5132 95.5614 93.9651 95.6736 94.3867C95.7857 94.8084 95.9502 95.1915 96.1575 95.5141C96.3648 95.8368 96.6109 96.0927 96.8818 96.2673C97.1527 96.4419 97.443 96.5317 97.7362 96.5316H119.781C120.074 96.5317 120.365 96.4419 120.635 96.2673C120.906 96.0928 121.152 95.8368 121.36 95.5141C121.567 95.1915 121.732 94.8084 121.844 94.3867C121.956 93.9651 122.014 93.5132 122.013 93.0569V58.7445C122.014 58.2881 121.956 57.8362 121.844 57.4146C121.732 56.993 121.567 56.6099 121.36 56.2872C121.152 55.9645 120.906 55.7086 120.635 55.534C120.365 55.3594 120.074 55.2696 119.781 55.2698V55.2698Z" fill="#CCCCCC"/>
<path d="M114.816 80.9274L104.408 84.0822C103.791 84.2682 103.151 84.0654 102.629 83.5184C102.108 82.9713 101.747 82.1246 101.626 81.1641L100.826 74.7692C100.707 73.8082 100.837 72.8127 101.188 72.001C101.54 71.1894 102.084 70.6279 102.701 70.4397L113.109 67.2849C113.727 67.0989 114.366 67.3017 114.888 67.8487C115.409 68.3958 115.77 69.2425 115.891 70.203L116.691 76.5979C116.811 77.5589 116.68 78.5544 116.329 79.366C115.977 80.1777 115.433 80.7392 114.816 80.9274Z" fill="#3F3D56"/>
<path d="M112.734 73.3723L104.791 75.78C104.645 75.824 104.495 75.7764 104.372 75.6476C104.249 75.5189 104.164 75.3195 104.136 75.0934C104.108 74.8672 104.138 74.6328 104.221 74.4418C104.304 74.2507 104.432 74.1187 104.577 74.0747L112.52 71.667C112.666 71.623 112.816 71.6706 112.939 71.7994C113.062 71.9281 113.147 72.1275 113.175 72.3536C113.203 72.5798 113.173 72.8142 113.09 73.0052C113.007 73.1962 112.879 73.3283 112.734 73.3723V73.3723Z" fill="white"/>
<path d="M111.19 76.9379L107.081 78.1832C106.936 78.2272 106.785 78.1796 106.663 78.0509C106.54 77.9221 106.455 77.7227 106.427 77.4966C106.399 77.2704 106.429 77.0361 106.512 76.845C106.595 76.654 106.723 76.5219 106.868 76.4779L110.976 75.2326C111.048 75.2108 111.122 75.2112 111.194 75.2339C111.266 75.2566 111.334 75.3011 111.395 75.3649C111.456 75.4286 111.508 75.5104 111.548 75.6055C111.589 75.7006 111.617 75.8072 111.631 75.9192C111.645 76.0311 111.645 76.1463 111.63 76.2581C111.616 76.3699 111.587 76.4761 111.546 76.5707C111.505 76.6653 111.452 76.7464 111.391 76.8094C111.33 76.8724 111.262 76.9161 111.19 76.9379Z" fill="white"/>
<path d="M122.013 58.7445V63.305H95.5038V58.7445C95.5037 58.2881 95.5614 57.8362 95.6736 57.4146C95.7857 56.993 95.9502 56.6099 96.1575 56.2872C96.3648 55.9645 96.6109 55.7086 96.8818 55.534C97.1527 55.3594 97.443 55.2697 97.7362 55.2698H119.781C120.074 55.2697 120.365 55.3594 120.635 55.534C120.906 55.7086 121.152 55.9645 121.36 56.2872C121.567 56.6099 121.732 56.993 121.844 57.4146C121.956 57.8362 122.014 58.2881 122.013 58.7445Z" fill="#B3B3B3"/>
<path d="M174.951 64.7331C174.798 63.9642 174.538 63.2568 174.19 62.6609C173.843 62.0649 173.415 61.5949 172.938 61.2838C172.461 60.9728 171.946 60.8283 171.429 60.8606C170.913 60.8929 170.407 61.1012 169.947 61.4707L139.619 44.5341L138.283 56.3269L168.515 69.2669C168.965 70.4271 169.673 71.2901 170.504 71.6924C171.336 72.0946 172.233 72.0081 173.027 71.4492C173.82 70.8904 174.454 69.898 174.809 68.6602C175.163 67.4224 175.214 66.0251 174.951 64.7331V64.7331Z" fill="#FFB8B8"/>
<path opacity="0.2" d="M174.951 64.7331C174.798 63.9642 174.538 63.2568 174.19 62.6609C173.843 62.0649 173.415 61.5949 172.938 61.2838C172.461 60.9728 171.946 60.8283 171.429 60.8606C170.913 60.8929 170.407 61.1012 169.947 61.4707L139.619 44.5341L138.283 56.3269L168.515 69.2669C168.965 70.4271 169.673 71.2901 170.504 71.6924C171.336 72.0946 172.233 72.0081 173.027 71.4492C173.82 70.8904 174.454 69.898 174.809 68.6602C175.163 67.4224 175.214 66.0251 174.951 64.7331V64.7331Z" fill="black"/>
<path d="M145.002 46.6829L142.138 58.3286C142.057 58.66 141.93 58.9601 141.767 59.2085C141.605 59.457 141.409 59.6479 141.195 59.7683C140.981 59.8888 140.752 59.9359 140.525 59.9064C140.298 59.8769 140.077 59.7716 139.879 59.5976L132.918 53.5C131.832 52.8413 130.957 51.5388 130.486 49.8781C130.016 48.2174 129.987 46.3339 130.407 44.6405C130.827 42.9472 131.662 41.5823 132.727 40.8449C133.793 40.1075 135.003 40.0579 136.092 40.707L143.864 43.3901C144.087 43.467 144.296 43.6177 144.478 43.8319C144.66 44.046 144.81 44.3186 144.918 44.6311C145.026 44.9436 145.089 45.2886 145.104 45.6427C145.118 45.9968 145.083 46.3516 145.002 46.6829V46.6829Z" fill="#A2DE96"/>
<path d="M177.338 75.5162L166.471 83.2048L167.897 91.5653C170.653 107.71 171.384 124.53 170.051 141.105V141.105L177.997 143.688L184.583 117.547L182.278 87.8179L177.338 75.5162Z" fill="#A2DE96"/>
<path d="M198.661 114.215C191.521 114.215 185.702 122.294 185.42 132.411H211.902C211.62 122.294 205.801 114.215 198.661 114.215Z" fill="#3F3D56"/>
<path d="M193.103 115.959C192.731 70.2897 176.021 74.4911 176.021 74.4911C176.021 74.4911 176.333 88.7064 176.484 89.1484C187.132 120.507 169.558 157.271 147.188 150.507C146.766 150.38 146.361 150.251 145.972 150.119C143.138 149.198 140.635 146.631 138.974 142.94C137.312 139.249 136.616 134.712 137.027 130.251C139.231 102.708 128.27 103.195 128.27 103.195H112.244L103.921 91.5361C103.627 91.1246 103.273 90.8314 102.89 90.6821C102.506 90.5327 102.105 90.5319 101.722 90.6796C101.338 90.8273 100.983 91.1191 100.689 91.5294C100.394 91.9397 100.169 92.4561 100.032 93.0333L98.9616 97.5567C98.9616 97.5567 83.1547 100.12 84.4719 124.21H89.3588C89.347 124.895 89.3647 125.58 89.4116 126.261L125.883 125.799C128.021 125.772 129.908 128.468 129.917 131.796C129.919 132.606 129.816 133.409 129.615 134.155C129.413 134.902 129.117 135.578 128.743 136.143C128.37 136.707 127.927 137.149 127.442 137.441C126.956 137.733 126.438 137.869 125.918 137.842L120.038 137.537C118.226 150.095 122.672 158.552 127.571 163.87C132.183 168.805 137.655 171.421 143.252 171.367H159.226C179.973 171.367 183.595 144.201 183.595 144.201C194.462 137.025 193.103 115.959 193.103 115.959Z" fill="#3F3D56"/>
<path d="M197.673 186.231C207.903 186.231 216.197 173.323 216.197 157.399C216.197 141.476 207.903 128.567 197.673 128.567C187.443 128.567 179.149 141.476 179.149 157.399C179.149 173.323 187.443 186.231 197.673 186.231Z" fill="#3F3D56"/>
<path d="M197.673 164.466C200.18 164.466 202.213 161.302 202.213 157.399C202.213 153.496 200.18 150.332 197.673 150.332C195.166 150.332 193.133 153.496 193.133 157.399C193.133 161.302 195.166 164.466 197.673 164.466Z" fill="white"/>
<path d="M104.148 186.231C115.925 186.231 125.471 171.372 125.471 153.042C125.471 134.713 115.925 119.854 104.148 119.854C92.3719 119.854 82.8253 134.713 82.8253 153.042C82.8253 171.372 92.3719 186.231 104.148 186.231Z" fill="#3F3D56"/>
<path d="M104.148 161.177C107.035 161.177 109.374 157.535 109.374 153.042C109.374 148.55 107.035 144.908 104.148 144.908C101.262 144.908 98.922 148.55 98.922 153.042C98.922 157.535 101.262 161.177 104.148 161.177Z" fill="white"/>
<path d="M166.501 85.4766L162.591 68.9465C162.388 68.085 162.295 67.1694 162.318 66.2521C162.342 65.3348 162.481 64.4337 162.729 63.6003C162.976 62.7668 163.326 62.0173 163.76 61.3946C164.193 60.7719 164.701 60.2882 165.255 59.971L176.464 53.5479C177.438 52.9897 178.473 52.7356 179.51 52.7999C180.547 52.8643 181.566 53.246 182.508 53.9232C183.45 54.6003 184.298 55.5597 185.002 56.7465C185.706 57.9334 186.252 59.3244 186.611 60.8402C186.934 62.2008 187.1 63.6401 187.099 65.0907C187.095 66.9327 186.827 68.75 186.315 70.4107C185.803 72.0714 185.06 73.5336 184.139 74.6911C183.474 75.5214 182.727 76.1774 181.926 76.6333L166.501 85.4766Z" fill="#3F3D56"/>
<path d="M186.934 65.0906C186.933 66.895 186.672 68.6762 186.171 70.303C185.669 71.9299 184.94 73.361 184.036 74.4911C182.65 73.9219 181.359 72.8894 180.255 71.4655C179.151 70.0417 178.259 68.2606 177.641 66.246C177.024 64.2314 176.696 62.0318 176.68 59.7999C176.664 57.568 176.96 55.3575 177.549 53.322C178.678 52.9397 179.848 52.956 180.973 53.3697C182.098 53.7834 183.15 54.584 184.05 55.7127C184.95 56.8414 185.676 58.2696 186.175 59.8924C186.674 61.5152 186.934 63.2914 186.934 65.0906V65.0906Z" fill="#A2DE96"/>
<path d="M87.271 127.542C89.8173 127.542 91.8814 123.641 91.8814 118.828C91.8814 114.016 89.8173 110.115 87.271 110.115C84.7248 110.115 82.6606 114.016 82.6606 118.828C82.6606 123.641 84.7248 127.542 87.271 127.542Z" fill="#A2DE96"/>
<path d="M148.214 149.673H152.251L154.172 133.375L148.213 133.375L148.214 149.673Z" fill="#FFB8B8"/>
<path d="M147.184 147.621L155.135 147.621H155.135C155.801 147.621 156.46 147.825 157.074 148.221C157.689 148.617 158.248 149.198 158.718 149.93C159.189 150.663 159.562 151.532 159.817 152.489C160.071 153.446 160.202 154.471 160.202 155.507V155.763L147.184 155.764L147.184 147.621Z" fill="#2F2E41"/>
<path d="M152.9 142.983C152.853 142.983 152.806 142.98 152.759 142.973L147.171 142.34C146.945 142.307 146.727 142.194 146.534 142.01C146.34 141.825 146.177 141.574 146.055 141.275C145.934 140.976 145.859 140.639 145.835 140.287C145.811 139.936 145.839 139.581 145.917 139.249L153.394 113.101C153.448 112.868 153.47 112.62 153.458 112.373C153.447 112.126 153.403 111.885 153.33 111.666C153.256 111.444 153.153 111.249 153.028 111.094C152.902 110.938 152.757 110.826 152.602 110.764C149.085 109.334 140.064 105.524 132.254 101.067C128.909 99.1578 126.801 96.3982 125.991 92.8653C124.923 88.2077 126.503 83.96 126.571 83.7817L126.624 83.6421L133.973 84.6817L141.939 85.7364L159.397 100.308C160.86 101.539 161.971 103.583 162.509 106.032C163.047 108.481 162.973 111.156 162.301 113.524L154.252 141.616C154.136 142.023 153.946 142.369 153.706 142.612C153.466 142.854 153.186 142.983 152.9 142.983Z" fill="#2F2E41"/>
<path d="M135.25 32.9486C139.717 32.9486 143.339 27.3122 143.339 20.3594C143.339 13.4065 139.717 7.77014 135.25 7.77014C130.783 7.77014 127.162 13.4065 127.162 20.3594C127.162 27.3122 130.783 32.9486 135.25 32.9486Z" fill="#FFB8B8"/>
<path d="M145.909 151.21H149.946L151.867 134.912L145.908 134.913L145.909 151.21Z" fill="#FFB8B8"/>
<path d="M144.879 149.159L152.83 149.158H152.83C153.495 149.158 154.154 149.362 154.769 149.759C155.384 150.155 155.942 150.736 156.413 151.468C156.883 152.2 157.257 153.07 157.511 154.027C157.766 154.984 157.897 156.009 157.897 157.045V157.301L144.879 157.302L144.879 149.159Z" fill="#2F2E41"/>
<path d="M150.595 144.521C150.548 144.521 150.501 144.518 150.453 144.511L144.866 143.877C144.64 143.845 144.422 143.732 144.228 143.547C144.035 143.363 143.871 143.111 143.75 142.813C143.629 142.514 143.553 142.176 143.529 141.825C143.505 141.474 143.534 141.119 143.612 140.787L151.089 114.638C151.143 114.405 151.164 114.157 151.153 113.911C151.142 113.664 151.098 113.423 151.024 113.204C150.951 112.982 150.848 112.787 150.722 112.631C150.597 112.476 150.452 112.364 150.296 112.302C146.78 110.871 137.759 107.062 129.949 102.605C126.604 100.695 124.496 97.9358 123.686 94.4029C122.618 89.7453 124.198 85.4976 124.266 85.3193L124.319 85.1797L131.667 86.2193L139.634 87.274L157.092 101.845C158.555 103.076 159.666 105.12 160.204 107.569C160.742 110.019 160.668 112.694 159.996 115.061L151.947 143.154C151.831 143.561 151.641 143.907 151.401 144.149C151.161 144.392 150.881 144.521 150.595 144.521Z" fill="#2F2E41"/>
<path d="M137.745 40.0871L129.183 35.474C129.183 35.474 123.808 41.9016 126.39 57.8469C127.738 66.0753 127.345 74.7609 125.27 82.6143C125.02 83.586 124.732 84.5328 124.408 85.4495C124.408 85.4495 133.958 103.389 142.849 90.0626L139.391 64.1779C139.391 64.1779 144.825 47.0068 137.745 40.0871Z" fill="#A2DE96"/>
<path d="M136.255 33.3767C135.104 30.6948 134.195 26.976 135.462 24.4242C136.714 21.9054 139.181 22.2765 141.097 21.1619C143.766 19.6095 145.314 14.7295 144.831 10.3592C144.348 5.98885 142.094 2.36597 139.409 0.883606C136.724 -0.598758 133.696 -0.116659 131.067 1.59037C127.83 3.69175 125.053 7.75673 123.889 12.906C122.724 18.0552 123.347 24.2379 125.762 28.1957C128.352 32.4389 132.416 33.5698 136.176 33.5011" fill="#2F2E41"/>
<path d="M128.731 10.4995C127.28 12.3375 125.067 11.5211 123.51 9.90805C121.953 8.29497 120.689 5.99804 119.005 4.73332C116.035 2.50367 112.444 3.98588 109.553 6.45561C106.662 8.92534 104.1 12.3373 101.046 14.2754C97.993 16.2136 94.0966 16.3093 91.7845 12.6498C91.2155 15.2156 91.169 17.9922 91.6513 20.6007C92.1336 23.2092 93.1212 25.5225 94.4794 27.2251C95.8376 28.9277 97.5002 29.9366 99.2404 30.1142C100.981 30.2917 102.714 29.6293 104.203 28.2172C107.549 25.0453 109.397 18.3945 113.149 16.6438C115.225 15.675 117.455 16.4553 119.554 17.3004C121.652 18.1455 123.841 19.0587 125.959 18.3393C128.077 17.6198 130.058 14.6574 129.788 11.3095L128.731 10.4995Z" fill="#2F2E41"/>
<path d="M174.548 64.2203C174.335 63.4866 174.022 62.8345 173.63 62.3099C173.237 61.7853 172.776 61.4009 172.278 61.1838C171.78 60.9668 171.257 60.9223 170.747 61.0536C170.237 61.1849 169.751 61.4887 169.325 61.9437L137.885 50.9608L137.494 62.92L168.521 69.9553C169.06 71.0203 169.831 71.7408 170.688 71.9803C171.545 72.2197 172.428 71.9615 173.171 71.2546C173.914 70.5477 174.465 69.4412 174.719 68.1447C174.972 66.8483 174.912 65.4519 174.548 64.2203V64.2203Z" fill="#FFB8B8"/>
<path d="M143.398 52.0595L141.479 64.1662C141.424 64.5107 141.322 64.8328 141.181 65.1106C141.039 65.3884 140.86 65.6154 140.657 65.7761C140.454 65.9368 140.231 66.0274 140.003 66.0418C139.775 66.0562 139.548 65.994 139.337 65.8595L131.947 61.1451C130.815 60.7012 129.843 59.5769 129.244 58.0189C128.644 56.4608 128.466 54.5963 128.749 52.8344C129.032 51.0725 129.752 49.5572 130.752 48.6209C131.752 47.6847 132.949 47.4039 134.082 47.8404L142.008 49.0103C142.235 49.0439 142.454 49.1533 142.652 49.3309C142.849 49.5085 143.019 49.7502 143.151 50.0396C143.283 50.3289 143.373 50.6592 143.416 51.0077C143.458 51.3563 143.452 51.7151 143.398 52.0595V52.0595Z" fill="#A2DE96"/>
<path d="M170.916 73.7222C172.19 73.7222 173.222 72.1158 173.222 70.1342C173.222 68.1527 172.19 66.5463 170.916 66.5463C169.643 66.5463 168.611 68.1527 168.611 70.1342C168.611 72.1158 169.643 73.7222 170.916 73.7222Z" fill="#A2DE96"/>
<path d="M273 186.487C273 186.623 272.965 186.753 272.903 186.849C272.842 186.945 272.758 186.999 272.671 187H0.329312C0.241973 187 0.158211 186.946 0.0964531 186.849C0.0346951 186.753 0 186.623 0 186.487C0 186.351 0.0346951 186.221 0.0964531 186.125C0.158211 186.029 0.241973 185.975 0.329312 185.975H272.671C272.758 185.975 272.842 186.029 272.903 186.125C272.965 186.221 273 186.351 273 186.487V186.487Z" fill="#3F3D56"/>
</g>
<defs>
<clipPath id="clip0_832_329">
<rect width="273" height="187" fill="white"/>
</clipPath>
</defs>
</svg>
