<svg width="273" height="187" viewBox="0 0 273 187" fill="none" xmlns="http://www.w3.org/2000/svg">
<g clip-path="url(#clip0_832_231)">
<path d="M59.1516 165.991C66.9927 165.991 73.3492 158.414 73.3492 149.066C73.3492 139.718 66.9927 132.14 59.1516 132.14C51.3106 132.14 44.9541 139.718 44.9541 149.066C44.9541 158.414 51.3106 165.991 59.1516 165.991Z" fill="#F2F2F2"/>
<path d="M61.46 163.514C69.3011 163.514 75.6575 155.937 75.6575 146.589C75.6575 137.241 69.3011 129.663 61.46 129.663C53.6189 129.663 47.2625 137.241 47.2625 146.589C47.2625 155.937 53.6189 163.514 61.46 163.514Z" fill="#A2DE96"/>
<path d="M248.556 127.861H72.894V128.432H248.556V127.861Z" fill="#3F3D56"/>
<path d="M163.869 5.32887H101.52V3.79688H73.2489V5.32887H10.6427C10.0889 5.32886 9.54048 5.45891 9.02879 5.71158C8.51711 5.96425 8.05218 6.3346 7.66055 6.80148C7.26893 7.26835 6.95827 7.82261 6.74633 8.43262C6.53438 9.04262 6.42529 9.69642 6.42529 10.3567V112.136C6.42529 113.47 6.86963 114.749 7.66055 115.692C8.45148 116.634 9.5242 117.164 10.6427 117.164H163.869C164.988 117.164 166.061 116.634 166.852 115.692C167.643 114.749 168.087 113.47 168.087 112.136V10.3567C168.087 9.69642 167.978 9.04262 167.766 8.43262C167.554 7.82261 167.243 7.26835 166.852 6.80148C166.46 6.3346 165.995 5.96425 165.483 5.71158C164.972 5.45891 164.423 5.32886 163.869 5.32887V5.32887Z" fill="#3F3D56"/>
<path d="M162.433 14.2144H12.0796V115.326H162.433V14.2144Z" fill="#A2DE96"/>
<path d="M87.1278 11.4568C87.9794 11.4568 88.6699 10.6337 88.6699 9.61842C88.6699 8.6031 87.9794 7.78003 87.1278 7.78003C86.2761 7.78003 85.5857 8.6031 85.5857 9.61842C85.5857 10.6337 86.2761 11.4568 87.1278 11.4568Z" fill="#A2DE96"/>
<path opacity="0.1" d="M119.434 115.326H12.0796V14.2145L119.434 115.326Z" fill="black"/>
<path d="M35.6055 107.76C43.5873 107.76 50.0579 100.046 50.0579 90.5302C50.0579 81.0146 43.5873 73.3008 35.6055 73.3008C27.6236 73.3008 21.1531 81.0146 21.1531 90.5302C21.1531 100.046 27.6236 107.76 35.6055 107.76Z" fill="#F2F2F2"/>
<path d="M136.254 68.7445H122.209V72.2431H136.254V68.7445Z" fill="#3F3D56"/>
<path d="M153.233 41.5055H105.23V43.0049H153.233V41.5055Z" fill="#3F3D56"/>
<path d="M153.233 46.2537H105.23V47.7531H153.233V46.2537Z" fill="#3F3D56"/>
<path d="M153.233 51.0017H105.23V52.5011H153.233V51.0017Z" fill="#3F3D56"/>
<path d="M153.233 55.7498H105.23V57.2491H153.233V55.7498Z" fill="#3F3D56"/>
<path d="M153.233 60.4978H105.23V61.9972H153.233V60.4978Z" fill="#3F3D56"/>
<path d="M153.233 16.2657H147.364V23.2629H153.233V16.2657Z" fill="#F2F2F2"/>
<path d="M155.958 26.5116H148.831V18.015H155.958V26.5116ZM149.141 26.1422H155.648V18.3844H149.141V26.1422Z" fill="#3F3D56"/>
<path d="M172.309 113.487H157.635V112.227C157.635 112.194 157.63 112.162 157.619 112.131C157.609 112.101 157.593 112.073 157.574 112.05C157.554 112.027 157.531 112.009 157.506 111.996C157.48 111.984 157.453 111.977 157.425 111.977H152.395C152.367 111.977 152.34 111.984 152.314 111.996C152.289 112.009 152.266 112.027 152.246 112.05C152.227 112.073 152.211 112.101 152.201 112.131C152.19 112.162 152.185 112.194 152.185 112.227V113.487H149.041V112.227C149.041 112.194 149.035 112.162 149.025 112.131C149.014 112.101 148.999 112.073 148.979 112.05C148.96 112.027 148.937 112.009 148.911 111.996C148.886 111.984 148.859 111.977 148.831 111.977H143.8C143.773 111.977 143.745 111.984 143.72 111.996C143.694 112.009 143.671 112.027 143.652 112.05C143.632 112.073 143.617 112.101 143.606 112.131C143.596 112.162 143.591 112.194 143.591 112.227V113.487H140.446V112.227C140.446 112.194 140.441 112.162 140.43 112.131C140.42 112.101 140.404 112.073 140.385 112.05C140.365 112.027 140.342 112.009 140.317 111.996C140.291 111.984 140.264 111.977 140.237 111.977H135.206C135.178 111.977 135.151 111.984 135.125 111.996C135.1 112.009 135.077 112.027 135.057 112.05C135.038 112.073 135.023 112.101 135.012 112.131C135.001 112.162 134.996 112.194 134.996 112.227V113.487H131.852V112.227C131.852 112.194 131.846 112.162 131.836 112.131C131.825 112.101 131.81 112.073 131.79 112.05C131.771 112.027 131.748 112.009 131.722 111.996C131.697 111.984 131.67 111.977 131.642 111.977H126.611C126.584 111.977 126.556 111.984 126.531 111.996C126.506 112.009 126.482 112.027 126.463 112.05C126.443 112.073 126.428 112.101 126.418 112.131C126.407 112.162 126.402 112.194 126.402 112.227V113.487H123.257V112.227C123.257 112.194 123.252 112.162 123.241 112.131C123.231 112.101 123.215 112.073 123.196 112.05C123.176 112.027 123.153 112.009 123.128 111.996C123.102 111.984 123.075 111.977 123.048 111.977H118.017C117.989 111.977 117.962 111.984 117.937 111.996C117.911 112.009 117.888 112.027 117.869 112.05C117.849 112.073 117.834 112.101 117.823 112.131C117.813 112.162 117.807 112.194 117.807 112.227V113.487H114.663V112.227C114.663 112.194 114.657 112.162 114.647 112.131C114.636 112.101 114.621 112.073 114.601 112.05C114.582 112.027 114.559 112.009 114.533 111.996C114.508 111.984 114.481 111.977 114.453 111.977H109.422C109.395 111.977 109.367 111.984 109.342 111.996C109.317 112.009 109.293 112.027 109.274 112.05C109.255 112.073 109.239 112.101 109.229 112.131C109.218 112.162 109.213 112.194 109.213 112.227V113.487H106.068V112.227C106.068 112.194 106.063 112.162 106.052 112.131C106.042 112.101 106.026 112.073 106.007 112.05C105.987 112.027 105.964 112.009 105.939 111.996C105.913 111.984 105.886 111.977 105.859 111.977H66.4499C66.4224 111.977 66.3951 111.984 66.3697 111.996C66.3443 112.009 66.3212 112.027 66.3017 112.05C66.2822 112.073 66.2668 112.101 66.2562 112.131C66.2457 112.162 66.2403 112.194 66.2403 112.227V113.487H63.096V112.227C63.096 112.194 63.0906 112.162 63.08 112.131C63.0695 112.101 63.054 112.073 63.0346 112.05C63.0151 112.027 62.992 112.009 62.9666 111.996C62.9411 111.984 62.9139 111.977 62.8864 111.977H57.8554C57.8279 111.977 57.8007 111.984 57.7752 111.996C57.7498 112.009 57.7267 112.027 57.7072 112.05C57.6877 112.073 57.6723 112.101 57.6618 112.131C57.6512 112.162 57.6458 112.194 57.6458 112.227V113.487H54.5015V112.227C54.5015 112.194 54.4961 112.162 54.4855 112.131C54.475 112.101 54.4596 112.073 54.4401 112.05C54.4206 112.027 54.3975 112.009 54.3721 111.996C54.3467 111.984 54.3194 111.977 54.2919 111.977H49.261C49.2334 111.977 49.2062 111.984 49.1808 111.996C49.1553 112.009 49.1322 112.027 49.1127 112.05C49.0933 112.073 49.0778 112.101 49.0673 112.131C49.0568 112.162 49.0514 112.194 49.0514 112.227V113.487H45.907V112.227C45.907 112.194 45.9016 112.162 45.8911 112.131C45.8805 112.101 45.8651 112.073 45.8456 112.05C45.8262 112.027 45.8031 112.009 45.7776 111.996C45.7522 111.984 45.7249 111.977 45.6974 111.977H40.6665C40.639 111.977 40.6117 111.984 40.5863 111.996C40.5609 112.009 40.5377 112.027 40.5183 112.05C40.4988 112.073 40.4834 112.101 40.4728 112.131C40.4623 112.162 40.4569 112.194 40.4569 112.227V113.487H37.3126V112.227C37.3126 112.194 37.3072 112.162 37.2966 112.131C37.2861 112.101 37.2706 112.073 37.2512 112.05C37.2317 112.027 37.2086 112.009 37.1832 111.996C37.1577 111.984 37.1305 111.977 37.103 111.977H32.072C32.0445 111.977 32.0173 111.984 31.9918 111.996C31.9664 112.009 31.9433 112.027 31.9238 112.05C31.9043 112.073 31.8889 112.101 31.8784 112.131C31.8678 112.162 31.8624 112.194 31.8624 112.227V113.487H28.7181V112.227C28.7181 112.194 28.7127 112.162 28.7021 112.131C28.6916 112.101 28.6762 112.073 28.6567 112.05C28.6372 112.027 28.6141 112.009 28.5887 111.996C28.5633 111.984 28.536 111.977 28.5085 111.977H23.4776C23.45 111.977 23.4228 111.984 23.3974 111.996C23.3719 112.009 23.3488 112.027 23.3293 112.05C23.3099 112.073 23.2944 112.101 23.2839 112.131C23.2734 112.162 23.2679 112.194 23.268 112.227V113.487H20.1236V112.227C20.1236 112.194 20.1182 112.162 20.1077 112.131C20.0971 112.101 20.0817 112.073 20.0622 112.05C20.0428 112.027 20.0197 112.009 19.9942 111.996C19.9688 111.984 19.9415 111.977 19.914 111.977H14.8831C14.8556 111.977 14.8283 111.984 14.8029 111.996C14.7775 112.009 14.7543 112.027 14.7349 112.05C14.7154 112.073 14.7 112.101 14.6894 112.131C14.6789 112.162 14.6735 112.194 14.6735 112.227V113.487H5.03091C3.69663 113.487 2.417 114.119 1.47352 115.244C0.530042 116.369 1.27117e-06 117.894 0 119.485V122.197C3.81351e-06 123.788 0.530046 125.313 1.47352 126.438C2.417 127.563 3.69663 128.194 5.03091 128.194H172.309C173.643 128.194 174.923 127.563 175.866 126.438C176.809 125.313 177.34 123.788 177.34 122.197V119.485C177.34 117.894 176.809 116.369 175.866 115.244C174.923 114.119 173.643 113.487 172.309 113.487Z" fill="#3F3D56"/>
<path d="M39.1036 101.291C35.5014 101.291 31.9801 100.018 28.9849 97.6321C25.9897 95.2463 23.6553 91.8552 22.2768 87.8877C20.8983 83.9202 20.5376 79.5545 21.2404 75.3426C21.9431 71.1307 23.6778 67.2619 26.2249 64.2253C28.7721 61.1887 32.0174 59.1207 35.5504 58.2829C39.0834 57.4451 42.7455 57.8751 46.0735 59.5185C49.4016 61.1619 52.2461 63.9449 54.2474 67.5156C56.2487 71.0862 57.3169 75.2842 57.3169 79.5786C57.3114 85.3352 55.3908 90.8541 51.9763 94.9247C48.5619 98.9952 43.9324 101.285 39.1036 101.291ZM39.1036 58.4371C35.5962 58.4371 32.1675 59.677 29.2512 62.0001C26.3348 64.3232 24.0618 67.625 22.7196 71.4881C21.3774 75.3512 21.0262 79.602 21.7104 83.7031C22.3947 87.8041 24.0837 91.5712 26.5638 94.5278C29.044 97.4845 32.2039 99.498 35.6439 100.314C39.084 101.13 42.6497 100.711 45.8901 99.1107C49.1306 97.5106 51.9002 94.8008 53.8489 91.3241C55.7975 87.8474 56.8376 83.76 56.8376 79.5786C56.8323 73.9735 54.9622 68.5997 51.6376 64.6363C48.313 60.6729 43.8053 58.4435 39.1036 58.4371V58.4371Z" fill="#3F3D56"/>
<path d="M201.585 9.29749H140.475V9.86888H201.585V9.29749Z" fill="#3F3D56"/>
<path d="M273 160.145H97.3381V160.716H273V160.145Z" fill="#3F3D56"/>
<path d="M107.283 186.429H46.1733V187H107.283V186.429Z" fill="#3F3D56"/>
<path d="M119.584 157.132H112.874V165.132H119.584V157.132Z" fill="#A2DE96"/>
<path d="M123.658 160.561H115.51V150.847H123.658V160.561ZM115.865 160.138H123.304V151.27H115.865V160.138Z" fill="#3F3D56"/>
<path d="M197.47 6.28528H190.76V14.2847H197.47V6.28528Z" fill="#A2DE96"/>
<path d="M201.544 9.71364H193.396V0H201.544V9.71364ZM193.75 9.29131H201.19V0.422333H193.75V9.29131Z" fill="#3F3D56"/>
<path d="M265.051 157.132H258.341V165.132H265.051V157.132Z" fill="#A2DE96"/>
<path d="M269.125 160.561H260.977V150.847H269.125V160.561ZM261.331 160.138H268.77V151.27H261.331V160.138Z" fill="#3F3D56"/>
<path d="M253.349 66.2694H252.779V47.6531C252.779 46.2381 252.545 44.837 252.091 43.5298C251.637 42.2225 250.971 41.0347 250.132 40.0342C249.293 39.0337 248.296 38.2401 247.2 37.6986C246.103 37.1571 244.928 36.8784 243.741 36.8784H210.657C209.47 36.8784 208.295 37.1571 207.198 37.6986C206.101 38.2401 205.105 39.0337 204.266 40.0342C203.427 41.0347 202.761 42.2225 202.307 43.5298C201.852 44.837 201.619 46.2381 201.619 47.6531V149.784C201.619 151.199 201.852 152.6 202.307 153.907C202.761 155.214 203.427 156.402 204.266 157.403C205.105 158.403 206.101 159.197 207.198 159.738C208.295 160.28 209.47 160.559 210.657 160.559H243.741C244.928 160.559 246.103 160.28 247.2 159.738C248.296 159.197 249.293 158.403 250.132 157.403C250.971 156.402 251.637 155.214 252.091 153.907C252.545 152.6 252.779 151.199 252.779 149.784V79.5209H253.349V66.2694Z" fill="#3F3D56"/>
<path d="M250.854 48.2863V150.268C250.855 152.402 250.144 154.449 248.878 155.958C247.612 157.468 245.896 158.316 244.106 158.316H210.862C209.072 158.316 207.355 157.468 206.089 155.958C204.824 154.449 204.113 152.402 204.113 150.268V48.2863C204.113 46.1526 204.825 44.1064 206.09 42.5977C207.356 41.089 209.072 40.2413 210.862 40.2411H214.895C214.697 40.8215 214.621 41.4512 214.675 42.0747C214.728 42.6983 214.91 43.2965 215.203 43.8167C215.497 44.3368 215.893 44.763 216.357 45.0577C216.821 45.3524 217.339 45.5065 217.864 45.5065H236.818C237.344 45.5065 237.862 45.3524 238.326 45.0577C238.79 44.763 239.186 44.3368 239.479 43.8167C239.772 43.2965 239.954 42.6983 240.008 42.0747C240.061 41.4512 239.986 40.8215 239.787 40.2411H244.106C245.895 40.2413 247.612 41.089 248.877 42.5977C250.143 44.1064 250.854 46.1526 250.854 48.2863V48.2863Z" fill="#A2DE96"/>
<path d="M232.435 107.484H222.532V110.982H232.435V107.484Z" fill="#3F3D56"/>
<path d="M244.408 80.2446H210.56V81.744H244.408V80.2446Z" fill="#3F3D56"/>
<path d="M244.408 84.9928H210.56V86.4922H244.408V84.9928Z" fill="#3F3D56"/>
<path d="M244.408 89.7408H210.56V91.2402H244.408V89.7408Z" fill="#3F3D56"/>
<path d="M244.408 94.4889H210.56V95.9883H244.408V94.4889Z" fill="#3F3D56"/>
<path d="M244.408 99.2371H210.56V100.736H244.408V99.2371Z" fill="#3F3D56"/>
<path d="M228.666 60.3328H222.797V67.3299H228.666V60.3328Z" fill="#F2F2F2"/>
<path d="M225.044 62.0825V70.5791H232.171V62.0825H225.044ZM231.862 70.2106H225.353V62.4511H231.862V70.2106Z" fill="#3F3D56"/>
<path opacity="0.1" d="M250.854 139.377V150.268C250.855 152.402 250.144 154.449 248.878 155.958C247.612 157.468 245.896 158.316 244.106 158.316H210.862C209.072 158.316 207.355 157.468 206.089 155.958C204.824 154.449 204.113 152.402 204.113 150.268V95.3546L232.121 121.733L232.6 122.184L237.81 127.09L238.297 127.55L250.854 139.377Z" fill="black"/>
<path d="M224.608 155.011C230.414 155.011 235.121 149.4 235.121 142.478C235.121 135.557 230.414 129.945 224.608 129.945C218.802 129.945 214.095 135.557 214.095 142.478C214.095 149.4 218.802 155.011 224.608 155.011Z" fill="#F2F2F2"/>
<path d="M76.7285 187C72.6049 187 68.5739 185.542 65.1452 182.811C61.7166 180.08 59.0443 176.198 57.4662 171.656C55.8882 167.115 55.4753 162.117 56.2798 157.295C57.0843 152.474 59.07 148.045 61.9858 144.569C64.9016 141.093 68.6166 138.726 72.661 137.767C76.7054 136.808 80.8975 137.3 84.7073 139.181C88.517 141.062 91.7732 144.248 94.0642 148.336C96.3551 152.423 97.5779 157.229 97.5779 162.144C97.5717 168.734 95.373 175.052 91.4644 179.712C87.5557 184.371 82.2562 186.993 76.7285 187ZM76.7285 137.86C72.6997 137.86 68.7614 139.285 65.4115 141.953C62.0617 144.621 59.4508 148.414 57.909 152.851C56.3673 157.289 55.9639 162.171 56.7499 166.882C57.5358 171.593 59.4759 175.92 62.3247 179.316C65.1735 182.712 68.8031 185.025 72.7545 185.962C76.7059 186.899 80.8017 186.418 84.5238 184.58C88.246 182.742 91.4273 179.63 93.6656 175.636C95.9039 171.643 97.0986 166.947 97.0986 162.144C97.0925 155.706 94.9444 149.534 91.1256 144.981C87.3068 140.429 82.1291 137.868 76.7285 137.86V137.86Z" fill="#3F3D56"/>
<path d="M227.707 152.145C225.1 152.145 222.552 151.224 220.384 149.497C218.216 147.77 216.527 145.316 215.529 142.445C214.532 139.574 214.271 136.415 214.779 133.366C215.288 130.318 216.543 127.519 218.387 125.321C220.23 123.123 222.579 121.627 225.135 121.021C227.692 120.414 230.342 120.725 232.751 121.915C235.159 123.104 237.218 125.118 238.666 127.702C240.114 130.286 240.887 133.324 240.887 136.432C240.883 140.598 239.494 144.592 237.023 147.538C234.552 150.483 231.201 152.14 227.707 152.145V152.145ZM227.707 121.29C225.195 121.29 222.739 122.178 220.65 123.842C218.562 125.506 216.934 127.871 215.972 130.637C215.011 133.404 214.759 136.449 215.249 139.386C215.74 142.323 216.949 145.021 218.726 147.139C220.502 149.256 222.765 150.699 225.229 151.283C227.693 151.867 230.246 151.567 232.567 150.421C234.888 149.275 236.872 147.334 238.268 144.844C239.663 142.354 240.408 139.427 240.408 136.432C240.404 132.417 239.065 128.569 236.684 125.73C234.303 122.891 231.074 121.295 227.707 121.29Z" fill="#3F3D56"/>
</g>
<defs>
<clipPath id="clip0_832_231">
<rect width="273" height="187" fill="white"/>
</clipPath>
</defs>
</svg>
