<svg width="273" height="187" viewBox="0 0 273 187" fill="none" xmlns="http://www.w3.org/2000/svg">
<g clip-path="url(#clip0_833_485)">
<path d="M99.3409 141.847C98.5144 140.162 98.4236 138.281 99.0848 136.544C99.7461 134.807 101.116 133.329 102.947 132.376C103.556 132.061 102.999 131.244 102.386 131.561C100.286 132.627 98.7191 134.312 97.9812 136.295C97.2432 138.279 97.3859 140.424 98.3822 142.324C98.6623 142.881 99.619 142.4 99.3409 141.847H99.3409Z" fill="#3F3D56"/>
<path d="M99.6585 143.117C98.161 140.861 98.5134 138.16 99.052 135.72C99.6143 133.172 100.351 130.585 99.7136 127.994C99.4244 126.736 98.7398 125.569 97.7326 124.615C97.2475 124.167 96.4639 124.836 96.9475 125.283C98.8308 127.023 99.0491 129.547 98.7437 131.789C98.3834 134.433 97.3623 137.009 97.489 139.696C97.5222 141.059 97.9373 142.395 98.6998 143.594C98.7767 143.698 98.8979 143.772 99.0379 143.801C99.1778 143.83 99.3255 143.812 99.4499 143.75C99.5743 143.688 99.6655 143.588 99.7045 143.47C99.7434 143.352 99.7269 143.225 99.6585 143.117L99.6585 143.117Z" fill="#3F3D56"/>
<path d="M107.695 150.324H88.8207C88.3791 150.324 87.9558 150.174 87.6436 149.909C87.3314 149.643 87.1558 149.283 87.1553 148.907V144.191C87.1569 142.979 87.7236 141.818 88.731 140.961C89.7384 140.104 91.1042 139.622 92.5289 139.62H95.2972C95.4444 139.62 95.5855 139.57 95.6895 139.482C95.7936 139.393 95.8522 139.273 95.8523 139.148V136.944C95.8526 136.736 95.9502 136.536 96.1236 136.388C96.2971 136.241 96.5322 136.158 96.7775 136.157H99.7382C99.9835 136.158 100.219 136.241 100.392 136.388C100.566 136.536 100.663 136.736 100.663 136.944V139.148C100.664 139.273 100.722 139.393 100.826 139.482C100.93 139.57 101.071 139.62 101.219 139.62H103.987C105.412 139.622 106.777 140.104 107.785 140.961C108.792 141.818 109.359 142.979 109.36 144.191V148.907C109.36 149.283 109.184 149.643 108.872 149.909C108.56 150.174 108.137 150.324 107.695 150.324V150.324Z" fill="#CCCCCC"/>
<path d="M98.5481 122.003C98.9455 123.797 98.4535 125.382 97.4492 125.543C96.4449 125.704 95.3086 124.38 94.9113 122.586C94.5139 120.792 95.736 117.809 95.736 117.809C95.736 117.809 98.1507 120.209 98.5481 122.003Z" fill="#A2DE96"/>
<path d="M106.17 130.35C104.911 131.828 103.22 132.614 102.392 132.104C101.564 131.595 101.913 129.982 103.172 128.504C104.43 127.025 107.817 125.729 107.817 125.729C107.817 125.729 107.428 128.871 106.17 130.35Z" fill="#A2DE96"/>
<path d="M64.5528 28.5139C63.7263 26.8289 63.6355 24.948 64.2968 23.211C64.958 21.4741 66.3278 19.9956 68.1586 19.0426C68.7683 18.7273 68.211 17.9102 67.5983 18.2271C65.4983 19.2938 63.931 20.9784 63.1931 22.962C62.4551 24.9455 62.5978 27.0905 63.5941 28.9906C63.8742 29.5477 64.8309 29.0671 64.5528 28.5139H64.5528Z" fill="#3F3D56"/>
<path d="M64.8704 29.7842C63.3729 27.5274 63.7253 24.8268 64.2639 22.3864C64.8262 19.8388 65.5633 17.2522 64.9255 14.6611C64.6363 13.4032 63.9517 12.2354 62.9445 11.282C62.4594 10.8339 61.6759 11.5031 62.1594 11.9498C64.0427 13.6898 64.261 16.2139 63.9556 18.4556C63.5953 21.0996 62.5742 23.6761 62.701 26.3628C62.7341 27.7256 63.1492 29.062 63.9117 30.2609C63.9886 30.3645 64.1098 30.4386 64.2498 30.4677C64.3897 30.4967 64.5375 30.4784 64.6618 30.4166C64.7862 30.3547 64.8775 30.2542 64.9164 30.1362C64.9553 30.0183 64.9388 29.892 64.8704 29.7842L64.8704 29.7842Z" fill="#3F3D56"/>
<path d="M72.907 36.9908H54.0326C53.591 36.9903 53.1677 36.8409 52.8555 36.5754C52.5433 36.3098 52.3677 35.9497 52.3672 35.5741V30.858C52.3688 29.6461 52.9355 28.4843 53.9429 27.6274C54.9502 26.7705 56.3161 26.2884 57.7407 26.2871H60.5091C60.6563 26.2869 60.7974 26.2371 60.9014 26.1486C61.0055 26.0601 61.0641 25.94 61.0642 25.8148V23.6111C61.0645 23.4025 61.1621 23.2024 61.3355 23.0549C61.509 22.9073 61.7441 22.8243 61.9894 22.8241H64.9501C65.1954 22.8243 65.4306 22.9073 65.604 23.0549C65.7775 23.2024 65.8751 23.4025 65.8753 23.6111V25.8148C65.8755 25.94 65.934 26.0601 66.0381 26.1486C66.1422 26.2371 66.2833 26.2869 66.4305 26.2871H69.1988C70.6235 26.2884 71.9893 26.7705 72.9967 27.6274C74.0041 28.4843 74.5707 29.6461 74.5724 30.858V35.5741C74.5719 35.9497 74.3962 36.3098 74.084 36.5754C73.7718 36.8409 73.3485 36.9903 72.907 36.9908V36.9908Z" fill="#CCCCCC"/>
<path d="M63.7598 8.66988C64.1572 10.4639 63.6652 12.0488 62.6609 12.2097C61.6566 12.3707 60.5203 11.0468 60.1229 9.2528C59.7255 7.45877 60.9477 4.47546 60.9477 4.47546C60.9477 4.47546 63.3624 6.87584 63.7598 8.66988Z" fill="#A2DE96"/>
<path d="M71.3814 17.0164C70.123 18.4952 68.4317 19.2808 67.6039 18.771C66.7761 18.2613 67.1252 16.6492 68.3836 15.1704C69.642 13.6916 73.0292 12.3958 73.0292 12.3958C73.0292 12.3958 72.6399 15.5376 71.3814 17.0164Z" fill="#A2DE96"/>
<path d="M27.0163 85.6296H11.8428V90.3519H27.0163V85.6296Z" fill="#A2DE96"/>
<path d="M27.0163 101.056H11.8428V105.778H27.0163V101.056Z" fill="#A2DE96"/>
<path d="M119.538 186.685H6.29147C4.62344 186.684 3.02427 186.119 1.8448 185.116C0.665322 184.113 0.00186995 182.752 0 181.333V5.35185C0.00186995 3.93294 0.665322 2.5726 1.8448 1.56928C3.02427 0.565958 4.62344 0.00159068 6.29147 0H119.538C121.206 0.00159733 122.805 0.565964 123.985 1.56928C125.164 2.57261 125.827 3.93294 125.829 5.35185V181.333C125.827 182.752 125.164 184.113 123.985 185.116C122.805 186.119 121.206 186.684 119.538 186.685V186.685ZM6.29147 0.62963C4.81968 0.631046 3.40866 1.12902 2.36795 2.0143C1.32724 2.89958 0.741838 4.09988 0.740173 5.35185V181.333C0.741838 182.585 1.32724 183.786 2.36795 184.671C3.40866 185.556 4.81968 186.054 6.29147 186.056H119.538C121.01 186.054 122.421 185.556 123.461 184.671C124.502 183.786 125.088 182.585 125.089 181.333V5.35185C125.088 4.09988 124.502 2.89958 123.461 2.0143C122.421 1.12902 121.01 0.631046 119.538 0.62963H6.29147Z" fill="#3F3D56"/>
<path d="M125.459 36.3462H0.370117V36.9758H125.459V36.3462Z" fill="#3F3D56"/>
<path d="M125.459 74.1339H0.370117V74.7635H125.459V74.1339Z" fill="#3F3D56"/>
<path d="M125.459 111.922H0.370117V112.551H125.459V111.922Z" fill="#3F3D56"/>
<path d="M125.459 149.709H0.370117V150.339H125.459V149.709Z" fill="#3F3D56"/>
<path d="M25.906 112.704H13.3231C12.8325 112.703 12.3622 112.537 12.0153 112.242C11.6684 111.947 11.4732 111.547 11.4727 111.13V80.5926C11.4732 80.1753 11.6684 79.7752 12.0153 79.4801C12.3622 79.185 12.8325 79.019 13.3231 79.0186H25.906C26.3966 79.019 26.8669 79.185 27.2138 79.4801C27.5607 79.7752 27.7559 80.1753 27.7565 80.5926V111.13C27.7559 111.547 27.5607 111.947 27.2138 112.242C26.8669 112.537 26.3966 112.703 25.906 112.704V112.704ZM13.3231 79.6482C13.0287 79.6485 12.7465 79.7481 12.5384 79.9251C12.3302 80.1022 12.2132 80.3422 12.2128 80.5926V111.13C12.2132 111.38 12.3302 111.62 12.5384 111.797C12.7465 111.974 13.0287 112.074 13.3231 112.074H25.906C26.2004 112.074 26.4826 111.974 26.6907 111.797C26.8989 111.62 27.016 111.38 27.0163 111.13V80.5926C27.016 80.3422 26.8989 80.1022 26.6907 79.9251C26.4826 79.7481 26.2004 79.6485 25.906 79.6482H13.3231Z" fill="#3F3D56"/>
<path d="M50.3317 85.6296H35.1582V90.3519H50.3317V85.6296Z" fill="#A2DE96"/>
<path d="M50.3317 101.056H35.1582V105.778H50.3317V101.056Z" fill="#A2DE96"/>
<path d="M49.2215 112.704H36.6385C36.1479 112.703 35.6776 112.537 35.3307 112.242C34.9838 111.947 34.7887 111.547 34.7881 111.13V80.5926C34.7887 80.1753 34.9838 79.7752 35.3307 79.4801C35.6776 79.185 36.1479 79.019 36.6385 79.0186H49.2215C49.712 79.019 50.1824 79.185 50.5293 79.4801C50.8762 79.7752 51.0713 80.1753 51.0719 80.5926V111.13C51.0713 111.547 50.8762 111.947 50.5293 112.242C50.1824 112.537 49.712 112.703 49.2215 112.704V112.704ZM36.6385 79.6482C36.3442 79.6485 36.062 79.7481 35.8538 79.9251C35.6457 80.1022 35.5286 80.3422 35.5283 80.5926V111.13C35.5286 111.38 35.6457 111.62 35.8538 111.797C36.062 111.974 36.3442 112.074 36.6385 112.074H49.2215C49.5158 112.074 49.798 111.974 50.0062 111.797C50.2143 111.62 50.3314 111.38 50.3317 111.13V80.5926C50.3314 80.3422 50.2143 80.1022 50.0062 79.9251C49.798 79.7481 49.5158 79.6485 49.2215 79.6482H36.6385Z" fill="#3F3D56"/>
<path d="M87.3403 47.537H72.1667V52.2592H87.3403V47.537Z" fill="#A2DE96"/>
<path d="M87.3403 62.9629H72.1667V67.6851H87.3403V62.9629Z" fill="#A2DE96"/>
<path d="M86.2302 74.6111H73.6473C73.1567 74.6106 72.6864 74.4446 72.3395 74.1495C71.9926 73.8544 71.7974 73.4543 71.7969 73.037V42.5C71.7974 42.0827 71.9926 41.6826 72.3395 41.3875C72.6864 41.0924 73.1567 40.9264 73.6473 40.9259H86.2302C86.7208 40.9264 87.1912 41.0924 87.5381 41.3875C87.885 41.6826 88.0801 42.0827 88.0807 42.5V73.037C88.0801 73.4543 87.885 73.8544 87.5381 74.1495C87.1912 74.4446 86.7208 74.6106 86.2302 74.6111V74.6111ZM73.6473 41.5555C73.3529 41.5558 73.0707 41.6554 72.8626 41.8325C72.6545 42.0095 72.5374 42.2496 72.537 42.5V73.037C72.5374 73.2874 72.6545 73.5275 72.8626 73.7045C73.0707 73.8816 73.3529 73.9812 73.6473 73.9815H86.2302C86.5246 73.9812 86.8068 73.8816 87.015 73.7045C87.2231 73.5275 87.3402 73.2874 87.3405 73.037V42.5C87.3402 42.2496 87.2231 42.0095 87.015 41.8325C86.8068 41.6554 86.5246 41.5558 86.2302 41.5555H73.6473Z" fill="#3F3D56"/>
<path d="M110.656 47.537H95.4822V52.2592H110.656V47.537Z" fill="#A2DE96"/>
<path d="M110.656 62.9629H95.4822V67.6851H110.656V62.9629Z" fill="#A2DE96"/>
<path d="M109.546 74.6111H96.9627C96.4721 74.6106 96.0018 74.4446 95.6549 74.1495C95.308 73.8544 95.1129 73.4543 95.1123 73.037V42.5C95.1129 42.0827 95.308 41.6826 95.6549 41.3875C96.0018 41.0924 96.4721 40.9264 96.9627 40.9259H109.546C110.036 40.9264 110.507 41.0924 110.854 41.3875C111.2 41.6826 111.396 42.0827 111.396 42.5V73.037C111.396 73.4543 111.2 73.8544 110.854 74.1495C110.507 74.4446 110.036 74.6106 109.546 74.6111V74.6111ZM96.9627 41.5555C96.6684 41.5558 96.3862 41.6554 96.178 41.8325C95.9699 42.0095 95.8528 42.2496 95.8525 42.5V73.037C95.8528 73.2874 95.9699 73.5275 96.178 73.7045C96.3862 73.8816 96.6684 73.9812 96.9627 73.9815H109.546C109.84 73.9812 110.122 73.8816 110.33 73.7045C110.539 73.5275 110.656 73.2874 110.656 73.037V42.5C110.656 42.2496 110.539 42.0095 110.33 41.8325C110.122 41.6554 109.84 41.5558 109.546 41.5555H96.9627Z" fill="#3F3D56"/>
<path d="M68.9433 82.8095L54.7395 87.3497L56.6922 91.7702L70.896 87.2299L68.9433 82.8095Z" fill="#A2DE96"/>
<path d="M75.322 97.2496L61.1182 101.79L63.0709 106.21L77.2747 101.67L75.322 97.2496Z" fill="#A2DE96"/>
<path d="M66.6689 112.352C66.2925 112.351 65.9254 112.253 65.6161 112.071C65.3069 111.888 65.0702 111.63 64.9377 111.331L52.3102 82.7453C52.1382 82.3545 52.1555 81.9216 52.3582 81.5416C52.5609 81.1616 52.9324 80.8655 53.3914 80.7182L65.1703 76.9532C65.3978 76.8805 65.6399 76.8465 65.8828 76.8534C66.1256 76.8603 66.3646 76.9078 66.5859 76.9932C66.8072 77.0786 67.0065 77.2003 67.1725 77.3512C67.3385 77.5022 67.4679 77.6795 67.5534 77.873L80.1808 106.458C80.3528 106.849 80.3356 107.282 80.1329 107.662C79.9302 108.042 79.5586 108.338 79.0996 108.486H79.0996L67.3207 112.251C67.1124 112.318 66.8916 112.352 66.6689 112.352V112.352ZM65.8219 77.4817C65.6882 77.4818 65.5557 77.5024 65.4307 77.5426L53.6519 81.3076C53.3765 81.396 53.1535 81.5736 53.0319 81.8017C52.9102 82.0297 52.8999 82.2894 53.0031 82.524L65.6305 111.109C65.6818 111.225 65.7595 111.332 65.8591 111.422C65.9587 111.513 66.0783 111.586 66.2111 111.637C66.3438 111.688 66.4872 111.717 66.6329 111.721C66.7786 111.725 66.9239 111.705 67.0604 111.661L78.8392 107.896C79.1146 107.808 79.3376 107.63 79.4592 107.402C79.5808 107.174 79.5911 106.914 79.4879 106.68L66.8605 78.0944C66.7809 77.9147 66.639 77.7598 66.4534 77.6504C66.2679 77.5409 66.0476 77.4821 65.8219 77.4817V77.4817Z" fill="#3F3D56"/>
<path d="M17.8713 45.3465L3.66748 49.8867L5.62018 54.3072L19.824 49.7669L17.8713 45.3465Z" fill="#A2DE96"/>
<path d="M24.2502 59.7867L10.0464 64.3269L11.9991 68.7473L26.2029 64.2071L24.2502 59.7867Z" fill="#A2DE96"/>
<path d="M15.5968 74.889C15.2205 74.8884 14.8533 74.7903 14.5441 74.6079C14.2349 74.4255 13.9982 74.1673 13.8656 73.8677L1.2382 45.2823C1.06621 44.8915 1.08346 44.4586 1.28615 44.0786C1.48883 43.6986 1.86042 43.4025 2.31941 43.2552L14.0983 39.4902C14.3258 39.4174 14.5679 39.3835 14.8107 39.3904C15.0536 39.3973 15.2925 39.4448 15.5138 39.5302C15.7351 39.6156 15.9345 39.7373 16.1005 39.8882C16.2665 40.0392 16.3959 40.2165 16.4814 40.41L29.1088 68.9955C29.2808 69.3863 29.2635 69.8192 29.0608 70.1992C28.8582 70.5792 28.4866 70.8753 28.0276 71.0226H28.0275L16.2487 74.7876C16.0404 74.8545 15.8195 74.8889 15.5968 74.889ZM14.7498 40.0187C14.6162 40.0188 14.4837 40.0394 14.3586 40.0796L2.57985 43.8446C2.30443 43.9329 2.08145 44.1106 1.95983 44.3387C1.83821 44.5667 1.82786 44.8264 1.93107 45.0609L14.5585 73.6464C14.6098 73.7625 14.6874 73.8689 14.7871 73.9594C14.8867 74.05 15.0063 74.123 15.139 74.1742C15.2718 74.2255 15.4152 74.254 15.5609 74.2581C15.7066 74.2622 15.8519 74.2419 15.9883 74.1982L27.7671 70.4332C28.0426 70.3448 28.2655 70.1671 28.3872 69.9391C28.5088 69.7111 28.5191 69.4513 28.4159 69.2168L15.7885 40.6314C15.7089 40.4517 15.5669 40.2968 15.3814 40.1874C15.1959 40.0779 14.9756 40.0191 14.7498 40.0187V40.0187Z" fill="#3F3D56"/>
<path d="M232.044 78.7037C238.38 78.7037 243.517 74.3343 243.517 68.9444C243.517 63.5546 238.38 59.1852 232.044 59.1852C225.708 59.1852 220.572 63.5546 220.572 68.9444C220.572 74.3343 225.708 78.7037 232.044 78.7037Z" fill="#2F2E41"/>
<path d="M181.076 113.482C181.618 113.66 182.199 113.736 182.779 113.702C183.359 113.669 183.923 113.528 184.432 113.289C184.941 113.051 185.383 112.72 185.725 112.32C186.067 111.921 186.303 111.462 186.414 110.977L217.959 94.0467L212.218 88.5479L183.002 106.93C182.031 106.825 181.049 107.026 180.241 107.496C179.433 107.965 178.855 108.671 178.618 109.478C178.381 110.286 178.5 111.139 178.953 111.877C179.406 112.615 180.161 113.186 181.076 113.482V113.482Z" fill="#FFB8B8"/>
<path d="M211.373 98.5478C211.094 98.5482 210.819 98.4889 210.574 98.3754C210.329 98.2619 210.121 98.0978 209.97 97.8982L206.317 93.0693C206.086 92.7645 206.002 92.3961 206.081 92.0399C206.16 91.6838 206.396 91.3669 206.741 91.1546L218.965 83.639C219.559 83.2743 220.232 83.0145 220.945 82.8749C221.658 82.7354 222.397 82.7189 223.118 82.8266C223.839 82.9342 224.527 83.1638 225.142 83.5016C225.756 83.8394 226.285 84.2787 226.697 84.7935C227.109 85.3083 227.395 85.888 227.538 86.4985C227.682 87.1089 227.68 87.7377 227.533 88.3476C227.386 88.9575 227.097 89.5361 226.682 90.0492C226.268 90.5622 225.736 90.9994 225.12 91.3348L212.267 98.3252C212 98.4707 211.69 98.548 211.373 98.5478V98.5478Z" fill="#2F2E41"/>
<path d="M216.831 182.86L212.294 182.86L210.136 167.973L216.832 167.973L216.831 182.86Z" fill="#FFB8B8"/>
<path d="M209.053 181.757H217.804V186.444H203.544C203.544 185.828 203.686 185.219 203.963 184.65C204.24 184.082 204.646 183.565 205.158 183.13C205.669 182.695 206.277 182.349 206.945 182.114C207.613 181.878 208.33 181.757 209.053 181.757V181.757Z" fill="#2F2E41"/>
<path d="M238.013 179.975L233.644 181.018L226.835 167.181L233.283 165.642L238.013 179.975Z" fill="#FFB8B8"/>
<path d="M230.174 180.701L238.599 178.689L240.088 183.202L226.359 186.48C226.163 185.887 226.107 185.268 226.193 184.657C226.279 184.046 226.505 183.455 226.859 182.918C227.214 182.382 227.689 181.91 228.257 181.529C228.826 181.149 229.477 180.867 230.174 180.701V180.701Z" fill="#2F2E41"/>
<path d="M250.238 157.128L232.623 139.445L243.312 128.412C243.468 128.251 243.665 128.121 243.888 128.031C244.112 127.942 244.355 127.896 244.602 127.897C244.848 127.898 245.091 127.945 245.314 128.035C245.536 128.125 245.732 128.256 245.888 128.419L262.061 145.304L250.238 157.128Z" fill="#A2DE96"/>
<path d="M233.334 139.576C233.593 139.179 233.915 138.813 234.291 138.489L244.493 129.691C244.893 129.344 245.431 129.139 246.002 129.115C247.167 129.068 249.079 129.168 249.612 130.256L235.838 139.843L233.334 139.576Z" fill="#F2F2F2"/>
<path d="M250.85 160.87C250.064 160.85 249.301 160.644 248.645 160.276L248.596 160.233L232.463 139.245L235.14 139.025L249.487 129.505C249.668 129.385 249.877 129.298 250.099 129.25C250.322 129.202 250.554 129.193 250.781 129.224C251.007 129.256 251.224 129.327 251.417 129.433C251.61 129.539 251.774 129.678 251.901 129.841L267.584 150.033C267.825 150.345 267.911 150.725 267.826 151.09C267.74 151.456 267.489 151.779 267.126 151.988L251.95 160.693C251.6 160.811 251.226 160.872 250.85 160.87Z" fill="#A2DE96"/>
<path d="M245.144 146.513C244.992 146.513 244.843 146.482 244.709 146.421C244.574 146.36 244.46 146.273 244.375 146.166L242.522 143.824C242.385 143.651 242.335 143.438 242.382 143.234C242.429 143.029 242.569 142.848 242.773 142.731L252.281 137.286C252.484 137.17 252.734 137.127 252.975 137.167C253.215 137.207 253.427 137.327 253.565 137.5L255.418 139.841C255.555 140.015 255.605 140.227 255.558 140.432C255.511 140.637 255.371 140.817 255.167 140.934L245.659 146.379C245.507 146.466 245.328 146.513 245.144 146.513Z" fill="#3F3D56"/>
<path d="M209.418 180.609C208.912 180.607 208.425 180.445 208.052 180.153C207.68 179.862 207.449 179.462 207.405 179.033C206.598 171.231 202.547 131.906 202.102 123.964C201.609 115.14 210.242 101.18 210.329 101.041L210.389 100.945L214.656 101.398V101.82L218.717 102.227L226.577 102.874L228.827 126.27L229.822 142.138L239.17 174.546C239.276 174.905 239.212 175.285 238.991 175.604C238.771 175.922 238.411 176.155 237.991 176.25L229.855 178.138C229.432 178.234 228.982 178.186 228.6 178.003C228.219 177.82 227.937 177.517 227.815 177.159L220.156 154.269C220.119 154.159 220.035 154.063 219.921 154.001C219.807 153.939 219.67 153.915 219.537 153.932C219.403 153.95 219.281 154.009 219.195 154.097C219.108 154.186 219.063 154.298 219.067 154.413L219.877 176.732C219.881 176.961 219.83 177.189 219.727 177.401C219.624 177.612 219.472 177.804 219.278 177.964C217.414 179.454 212.486 180.249 209.715 180.591C209.617 180.603 209.517 180.609 209.418 180.609V180.609Z" fill="#2F2E41"/>
<path d="M233.864 82.2903C232.573 81.1455 224.067 82.7187 222.179 84.4053L209.249 102.383L230.632 105.767L235.356 82.9248L233.864 82.2903Z" fill="#A2DE96"/>
<path d="M228.26 127.966C227.799 127.966 227.342 127.901 226.906 127.774C225.664 127.411 224.141 127.032 222.381 126.647C214.671 124.961 211.948 119.561 214.29 110.598L214.349 110.37C216.548 101.868 220.692 93.8172 226.546 86.6764L227.453 85.5684C228.547 84.2317 230.08 83.198 231.859 82.596C233.639 81.994 235.587 81.8501 237.462 82.1823C240.931 82.7911 242.794 83.6731 242.998 84.8041C243.4 87.0235 235.651 113.852 232.3 125.284C232.076 126.05 231.556 126.731 230.824 127.217C230.091 127.703 229.189 127.967 228.26 127.966L228.26 127.966Z" fill="#2F2E41"/>
<path d="M201.699 124.522C201.497 124.522 201.297 124.495 201.104 124.443L198.605 123.763C198.347 123.692 198.109 123.577 197.906 123.424C197.703 123.271 197.54 123.083 197.427 122.873C197.314 122.663 197.254 122.436 197.25 122.205C197.247 121.974 197.3 121.746 197.406 121.533L210.667 95.0562C213.208 90.0054 217.65 85.8162 223.295 83.1477H223.296C223.377 83.1093 223.468 83.0857 223.561 83.0783C223.654 83.0709 223.748 83.0799 223.836 83.1046C223.918 83.1267 223.993 83.1631 224.057 83.2115C224.121 83.2598 224.173 83.319 224.208 83.3853C225.768 86.3038 217.279 100.116 210.459 111.214C206.966 116.896 203.95 121.804 203.607 123.204C203.515 123.576 203.275 123.911 202.928 124.151C202.58 124.391 202.146 124.522 201.699 124.522V124.522Z" fill="#2F2E41"/>
<path d="M242.724 130.555C243.19 130.259 243.574 129.88 243.849 129.444C244.124 129.009 244.283 128.527 244.316 128.034C244.348 127.54 244.253 127.046 244.037 126.587C243.821 126.128 243.489 125.715 243.065 125.377L242.96 93.6488L234.433 94.8658L237.222 125.687C236.601 126.33 236.28 127.145 236.319 127.977C236.357 128.809 236.753 129.6 237.431 130.2C238.11 130.8 239.023 131.167 239.999 131.233C240.974 131.298 241.944 131.057 242.724 130.555V130.555Z" fill="#FFB8B8"/>
<path d="M235.782 101.52C235.359 101.52 234.952 101.384 234.644 101.138C234.335 100.892 234.148 100.556 234.121 100.197L233.129 87.395C233.035 86.1632 233.519 84.9501 234.476 84.0217C235.432 83.0933 236.782 82.5255 238.23 82.4428C238.973 82.4012 239.719 82.489 240.421 82.7011C241.123 82.9131 241.767 83.2448 242.313 83.6758C242.859 84.1069 243.296 84.6283 243.597 85.208C243.898 85.7877 244.056 86.4136 244.063 87.0473L244.198 100.024C244.201 100.399 244.03 100.759 243.721 101.027C243.413 101.295 242.993 101.448 242.552 101.453L235.802 101.52L235.782 101.52Z" fill="#2F2E41"/>
<path d="M229.681 79.2001C234.701 79.2001 238.77 75.7383 238.77 71.4679C238.77 67.1975 234.701 63.7357 229.681 63.7357C224.661 63.7357 220.591 67.1975 220.591 71.4679C220.591 75.7383 224.661 79.2001 229.681 79.2001Z" fill="#FFB8B8"/>
<path d="M237.238 76.8783C237.916 75.0431 238.539 72.8792 237.197 71.3305C236.23 70.2146 234.495 69.7827 232.867 69.7209C231.239 69.659 229.606 69.8937 227.982 69.7839C226.358 69.6741 224.641 69.1287 223.816 67.9334C222.746 66.3835 223.652 64.2488 225.372 63.205C227.092 62.1612 229.365 62.0155 231.458 62.2586C234.108 62.5262 236.598 63.4738 238.598 64.9754C240.544 66.5032 241.813 68.7054 241.756 70.9575C241.7 73.2096 240.215 75.4523 237.848 76.4635" fill="#2F2E41"/>
<path d="M234.972 59.983C232.796 59.4128 231.792 56.9655 232.766 55.2145C233.739 53.4634 236.226 52.5465 238.485 52.7904C240.744 53.0343 242.734 54.267 244.107 55.8122C245.48 57.3574 246.308 59.1993 246.998 61.045C247.688 62.8907 248.262 64.7764 249.205 66.5394C250.701 69.2483 253.009 71.5745 255.896 73.2844C258.784 74.9943 262.149 76.0277 265.655 76.2806C267.183 76.3748 268.769 76.3073 270.162 75.764C271.554 75.2207 272.722 74.1252 272.878 72.8287C273.671 77.4342 270.521 82.3286 265.533 84.2424C260.546 86.1562 254.148 84.925 250.614 81.3713C247.161 77.8985 246.626 72.9955 246.709 68.4475C246.732 67.2003 246.786 65.9296 246.381 64.7308C245.976 63.532 245.017 62.3922 243.621 62.0115C242.494 61.7043 241.274 61.9257 240.119 62.1435C238.964 62.3613 237.738 62.5709 236.619 62.2426C235.501 61.9143 234.601 60.8325 235.051 59.902" fill="#2F2E41"/>
<path d="M270.934 187H173.231C173.133 187 173.039 186.967 172.969 186.908C172.9 186.849 172.861 186.769 172.861 186.685C172.861 186.602 172.9 186.522 172.969 186.463C173.039 186.404 173.133 186.37 173.231 186.37H270.934C271.032 186.37 271.126 186.404 271.195 186.463C271.265 186.522 271.304 186.602 271.304 186.685C271.304 186.769 271.265 186.849 271.195 186.908C271.126 186.967 271.032 187 270.934 187Z" fill="#CCCCCC"/>
</g>
<defs>
<clipPath id="clip0_833_485">
<rect width="273" height="187" fill="white"/>
</clipPath>
</defs>
</svg>
