<svg width="273" height="187" viewBox="0 0 273 187" fill="none" xmlns="http://www.w3.org/2000/svg">
<path d="M8.65216 143.522C10.0051 128.934 18.1823 114.371 31.1932 109.278C26.3854 124.387 26.7917 140.806 32.3403 155.63C34.4998 161.338 37.4644 167.45 35.7103 173.312C34.6189 176.959 31.7991 179.804 28.6134 181.622C25.4275 183.441 21.8649 184.363 18.3467 185.269L17.6653 185.896C11.7179 172.653 7.29922 158.11 8.65216 143.522Z" fill="#F0F0F0"/>
<path d="M31.3303 109.549C23.9842 118.709 19.3606 130.407 18.5521 142.4C18.3774 144.992 18.4137 147.639 19.0118 150.173C19.6127 152.639 20.8277 154.889 22.5305 156.691C24.0862 158.405 25.8655 159.968 26.9998 162.051C28.1954 164.247 28.3017 166.777 27.5792 169.164C26.6952 172.085 24.8704 174.497 23.0082 176.789C20.9407 179.335 18.7549 181.944 17.9314 185.266C17.8316 185.669 17.2462 185.482 17.3458 185.08C18.7787 179.3 23.9695 175.897 26.3557 170.661C27.4692 168.218 27.8925 165.405 26.73 162.891C25.7135 160.692 23.88 159.079 22.2906 157.358C20.6217 155.551 19.3269 153.554 18.6253 151.12C17.9075 148.631 17.7732 145.98 17.8844 143.394C18.1781 137.532 19.3426 131.755 21.3351 126.274C23.5762 120.006 26.8159 114.19 30.9139 109.076C31.1676 108.759 31.5824 109.235 31.3303 109.549L31.3303 109.549Z" fill="white"/>
<path d="M18.6201 138.487C16.719 138.054 15.0254 136.922 13.8417 135.292C12.6579 133.662 12.0611 131.641 12.1579 129.589C12.1625 129.506 12.1977 129.427 12.2561 129.37C12.3145 129.314 12.3914 129.283 12.4707 129.285C12.55 129.287 12.6254 129.322 12.6811 129.381C12.7369 129.441 12.7685 129.521 12.7694 129.605C12.676 131.515 13.232 133.398 14.3373 134.913C15.4425 136.429 17.0241 137.477 18.7966 137.868C19.1817 137.954 19.003 138.572 18.6201 138.487V138.487Z" fill="white"/>
<path d="M21.6333 155.932C24.9922 153.686 27.4262 150.185 28.4501 146.127C28.5512 145.725 29.1366 145.912 29.0356 146.314C27.9626 150.534 25.4227 154.172 21.9225 156.501C21.5888 156.723 21.3014 156.152 21.6333 155.932Z" fill="white"/>
<path d="M24.1586 120.602C24.8611 120.932 25.6301 121.071 26.3964 121.009C27.1627 120.947 27.9024 120.685 28.549 120.246C28.88 120.02 29.167 120.59 28.8382 120.815C28.1217 121.296 27.3045 121.585 26.4579 121.656C25.6114 121.727 24.7613 121.577 23.982 121.221C23.9059 121.194 23.8424 121.137 23.8044 121.062C23.7664 120.988 23.7568 120.9 23.7775 120.818C23.8013 120.737 23.8547 120.668 23.926 120.628C23.9974 120.587 24.0809 120.578 24.1586 120.602H24.1586Z" fill="white"/>
<path d="M71.8492 134.148C71.6463 134.295 71.4435 134.443 71.2406 134.595C68.5232 136.592 65.964 138.819 63.588 141.253C63.4015 141.438 63.2151 141.629 63.034 141.819C57.3689 147.749 52.7953 154.738 49.5454 162.432C48.2549 165.494 47.1869 168.656 46.3505 171.89C45.1956 176.356 44.2799 181.296 41.8668 184.989C41.6192 185.378 41.349 185.75 41.0578 186.103L18.443 186.726C18.3909 186.7 18.3387 186.679 18.2864 186.653L17.3845 186.722C17.4166 186.552 17.4534 186.376 17.4855 186.206C17.5037 186.108 17.527 186.009 17.5452 185.91C17.559 185.844 17.573 185.779 17.5819 185.718C17.5864 185.696 17.5911 185.674 17.5957 185.658C17.6046 185.598 17.6189 185.543 17.6279 185.488C17.8308 184.506 18.0406 183.524 18.2573 182.542C18.2571 182.536 18.2571 182.536 18.262 182.531C19.9312 175.05 22.2061 167.652 25.4718 160.853C25.5701 160.649 25.668 160.439 25.7766 160.234C27.2648 157.178 28.9868 154.256 30.9256 151.496C31.9918 149.989 33.1296 148.539 34.3346 147.153C37.4545 143.579 41.0873 140.545 45.0998 138.163C53.0992 133.415 62.4469 131.423 71.1835 133.948C71.4069 134.013 71.6256 134.078 71.8492 134.148Z" fill="#F0F0F0"/>
<path d="M71.806 134.452C60.7201 137.094 50.3612 143.493 42.8807 152.555C41.2634 154.514 39.7842 156.65 38.8173 159.054C37.8919 161.404 37.5793 163.974 37.9119 166.496C38.1774 168.854 38.7074 171.233 38.4257 173.618C38.1287 176.132 36.7719 178.219 34.8343 179.666C32.4636 181.436 29.6322 182.201 26.8387 182.847C23.7371 183.565 20.5047 184.258 17.9538 186.386C17.6448 186.644 17.284 186.123 17.5926 185.865C22.0307 182.162 28.1149 182.746 33.0043 180.083C35.2857 178.84 37.2266 176.864 37.7315 174.117C38.1731 171.715 37.6285 169.261 37.3402 166.876C37.0375 164.372 37.142 161.954 37.9689 159.564C38.8147 157.12 40.218 154.918 41.7807 152.924C45.3564 148.43 49.5787 144.558 54.293 141.449C59.6548 137.87 65.5566 135.286 71.7432 133.81C72.1261 133.718 72.1864 134.362 71.806 134.452H71.806Z" fill="white"/>
<path d="M45.1651 149.474C43.8937 147.919 43.1867 145.938 43.1705 143.884C43.1542 141.83 43.8297 139.836 45.0763 138.26C45.3295 137.941 45.8094 138.342 45.5558 138.661C44.3924 140.127 43.7633 141.984 43.7822 143.897C43.801 145.809 44.4665 147.652 45.6586 149.092C45.9173 149.405 45.4223 149.785 45.1651 149.474V149.474Z" fill="white"/>
<path d="M37.6281 165.319C41.59 165.662 45.5288 164.415 48.6589 161.826C48.9688 161.569 49.3296 162.091 49.0201 162.347C45.7581 165.035 41.6567 166.324 37.5345 165.958C37.1417 165.922 37.2373 165.284 37.6281 165.319H37.6281Z" fill="white"/>
<path d="M59.7799 138.717C60.1532 139.426 60.6875 140.027 61.3348 140.465C61.9822 140.902 62.7223 141.163 63.4888 141.224C63.8819 141.254 63.7858 141.892 63.3952 141.863C62.5488 141.791 61.7317 141.502 61.0154 141.02C60.2992 140.538 59.7055 139.878 59.2864 139.098C59.241 139.028 59.2226 138.942 59.2349 138.859C59.2472 138.775 59.2892 138.699 59.3525 138.647C59.4181 138.597 59.4998 138.576 59.5798 138.589C59.6598 138.602 59.7317 138.648 59.7799 138.717V138.717Z" fill="white"/>
<path d="M204.579 12.7996C204.241 11.7464 200.007 8.16618 202.601 7.56442L204.729 10.5615L214.512 0.227539L215.496 1.2669L204.579 12.7996Z" fill="#A2DE96"/>
<path d="M204.579 47.9396C204.241 46.8864 200.007 43.3062 202.601 42.7044L204.729 45.7016L214.512 35.3676L215.496 36.4069L204.579 47.9396Z" fill="#A2DE96"/>
<path d="M204.579 83.5816C204.241 82.5284 200.007 78.9482 202.601 78.3464L204.729 81.3435L214.512 71.0095L215.496 72.0489L204.579 83.5816Z" fill="#A2DE96"/>
<path d="M195.57 54.7659C197.237 54.7659 198.589 53.3382 198.589 51.577C198.589 49.8158 197.237 48.3881 195.57 48.3881C193.903 48.3881 192.552 49.8158 192.552 51.577C192.552 53.3382 193.903 54.7659 195.57 54.7659Z" fill="#3F3D56"/>
<path d="M195.57 20.0067C197.237 20.0067 198.589 18.579 198.589 16.8178C198.589 15.0566 197.237 13.6289 195.57 13.6289C193.903 13.6289 192.552 15.0566 192.552 16.8178C192.552 18.579 193.903 20.0067 195.57 20.0067Z" fill="#3F3D56"/>
<path d="M273 9.48328H224.399V10.1211H273V9.48328Z" fill="#3F3D56"/>
<path d="M197.08 91.8192C198.747 91.8192 200.098 90.3915 200.098 88.6303C200.098 86.8691 198.747 85.4414 197.08 85.4414C195.413 85.4414 194.061 86.8691 194.061 88.6303C194.061 90.3915 195.413 91.8192 197.08 91.8192Z" fill="#3F3D56"/>
<path d="M273 44.6232H224.399V45.261H273V44.6232Z" fill="#3F3D56"/>
<path d="M273 80.2651H224.399V80.9029H273V80.2651Z" fill="#3F3D56"/>
<path d="M212.203 88.3331H197.109V72.0696H207.373V72.7074H197.713V87.6953H211.599V80.3608H212.203V88.3331Z" fill="#3F3D56"/>
<path d="M212.203 52.6171H197.109V36.3536H207.373V36.9914H197.713V51.9794H211.599V44.6448H212.203V52.6171Z" fill="#3F3D56"/>
<path d="M212.203 16.2635H197.109V0H207.373V0.637784H197.713V15.6257H211.599V8.29119H212.203V16.2635Z" fill="#3F3D56"/>
<path d="M113.656 57.9655C113.656 57.9655 109.622 75.9577 114.552 75.9577C119.482 75.9577 131.136 55.598 131.136 55.598L127.102 50.3898L119.861 61.0088L119.482 55.5981L113.656 57.9655Z" fill="#A0616A"/>
<path d="M130.061 56.3803C132.228 56.3803 133.985 54.5243 133.985 52.2347C133.985 49.9452 132.228 48.0891 130.061 48.0891C127.893 48.0891 126.136 49.9452 126.136 52.2347C126.136 54.5243 127.893 56.3803 130.061 56.3803Z" fill="#A0616A"/>
<path d="M110.236 180.508L115.459 180.508L117.944 159.223L110.234 159.223L110.236 180.508Z" fill="#A0616A"/>
<path d="M110.052 186.265L126.115 186.264V186.049C126.115 184.298 125.456 182.618 124.284 181.379C123.111 180.141 121.521 179.445 119.863 179.445H119.862L116.928 177.093L111.453 179.445L110.051 179.445L110.052 186.265Z" fill="#2F2E41"/>
<path d="M54.0464 173.624L58.7202 176.087L69.9414 158.215L63.043 154.578L54.0464 173.624Z" fill="#A0616A"/>
<path d="M51.448 178.687L65.821 186.265L65.9117 186.073C66.6521 184.505 66.7728 182.691 66.2473 181.03C65.7218 179.369 64.5931 177.996 63.1095 177.213L63.1091 177.213L61.4778 173.725L55.5853 173.247L54.3306 172.585L51.448 178.687Z" fill="#2F2E41"/>
<path d="M172.021 186.285H0V187H172.021V186.285Z" fill="#CCCCCC"/>
<path d="M76.4632 90.6061C76.4632 90.6061 74.3756 117.121 73.9274 122.803C73.6201 126.365 72.8665 129.868 71.6864 133.22C71.6864 133.22 70.79 135.114 70.79 137.008L60.6306 156.512C60.6306 156.512 57.5261 158.923 57.9743 160.817C58.4225 162.711 56.1025 163.847 56.1025 163.847L66.8013 166.025C66.8013 166.025 66.3531 164.605 67.6977 164.131C69.0423 163.658 70.1127 159.551 70.1127 159.551L85.1326 133.693L95.8896 110.019C95.8896 110.019 102.165 131.326 103.509 133.693C103.509 133.693 108.439 160.208 109.336 162.576C110.232 164.943 110.68 164.943 110.232 165.89C109.784 166.837 109.784 167.784 110.232 168.257C110.68 168.731 119.196 168.257 119.196 168.257L116.955 134.64L112.921 94.3944L92.3039 87.7656L76.4632 90.6061Z" fill="#2F2E41"/>
<path d="M96.6489 27.3072C101.847 27.3072 106.061 22.8555 106.061 17.3641C106.061 11.8727 101.847 7.42102 96.6489 7.42102C91.4506 7.42102 87.2366 11.8727 87.2366 17.3641C87.2366 22.8555 91.4506 27.3072 96.6489 27.3072Z" fill="#A0616A"/>
<path d="M113.818 41.838L102.613 34.6666C102.613 34.6666 102.303 30.2133 99.11 30.0038C97.5072 29.8986 95.102 29.7378 91.4924 29.4919C90.7296 29.44 90.2149 33.8487 89.3406 33.7889L77.5131 37.1032L79.3059 69.2999C79.3059 69.2999 76.6167 82.0839 77.5131 84.4513C78.4095 86.8187 75.2721 87.7656 76.1685 88.2391C77.0649 88.7126 76.1685 92.027 76.1685 92.027C76.1685 92.027 93.6486 101.497 112.922 94.3944L111.129 88.2391C111.373 87.4345 111.418 86.5774 111.262 85.7489C111.105 84.9205 110.75 84.1479 110.232 83.5043C110.232 83.5043 112.025 80.6634 109.784 78.296C109.784 78.296 110.68 74.0347 108.439 72.1408L107.991 65.512L109.336 62.1977L113.818 41.838Z" fill="#E6E6E6"/>
<path d="M88.4814 23.0444L88.2183 22.3988C88.1844 22.3153 84.8557 14.0027 87.8061 8.87517C89.1719 6.50139 91.6554 5.16121 95.1874 4.89214C100.714 4.47001 104.496 5.85487 106.432 9.00535C106.757 9.53929 106.939 10.1558 106.961 10.79C106.982 11.4242 106.841 12.0527 106.552 12.6094C106.264 13.1661 105.839 13.6305 105.322 13.9537C104.805 14.2768 104.215 14.4469 103.614 14.446H103.54L102.525 13.0532L102.466 13.1886C102.098 14.0288 101.254 14.4888 100.265 14.388C100.097 14.3753 99.9476 14.5286 99.8279 14.8569C99.7876 15.0005 99.7115 15.1299 99.6075 15.2317C99.5036 15.3335 99.3756 15.4039 99.237 15.4354C98.5063 15.5856 97.4648 14.6134 96.9986 14.1288C96.9806 14.2403 96.9402 14.3465 96.88 14.4401C96.8198 14.5337 96.7414 14.6125 96.6499 14.6713C96.1586 14.9707 95.394 14.5796 95.1746 14.455C93.4263 14.8474 92.2946 14.7424 91.8098 14.1434C91.4811 16.6001 90.7756 21.0219 89.9297 21.267C89.8413 21.2884 89.7487 21.2793 89.6656 21.2409C89.5824 21.2025 89.5132 21.1369 89.4681 21.0538C89.2644 20.7744 89.0823 20.6353 88.9687 20.6743C88.6935 20.7668 88.5311 21.7241 88.5078 22.342L88.4814 23.0444Z" fill="#2F2E41"/>
<path d="M108.888 42.3116L113.359 41.5442C116.58 44.8133 118.773 49.0473 119.645 53.6751C120.989 61.2508 121.437 62.6712 121.437 62.6712L110.68 65.5121L104.854 53.6751L108.888 42.3116Z" fill="#E6E6E6"/>
<path d="M89.048 52.1651L86.2849 89.1675L156.797 95.0434L159.56 58.041L89.048 52.1651Z" fill="white"/>
<path d="M96.5813 55.0319C94.8557 53.7302 92.6648 53.636 91.8279 53.6548C92.0832 54.4967 92.8767 56.656 94.6022 57.9584C96.332 59.2634 98.5202 59.3547 99.3559 59.3364C99.1006 58.4948 98.3071 56.3346 96.5813 55.0319Z" fill="#A2DE96"/>
<path d="M103.389 78.5772L92.0664 77.6337C91.7319 77.6058 91.3954 77.6479 91.0763 77.7573C90.7571 77.8668 90.4614 78.0416 90.2062 78.2718C89.951 78.502 89.7412 78.7831 89.5888 79.0989C89.4364 79.4147 89.3444 79.7592 89.318 80.1126C89.2916 80.466 89.3313 80.8214 89.435 81.1586C89.5386 81.4958 89.7041 81.8081 89.922 82.0777C90.1399 82.3473 90.406 82.5689 90.7049 82.7299C91.0039 82.8909 91.33 82.9882 91.6645 83.016V83.016L102.987 83.9595C103.662 84.0158 104.332 83.7863 104.847 83.3214C105.362 82.8565 105.682 82.1944 105.735 81.4807C105.789 80.7669 105.571 80.0601 105.131 79.5156C104.691 78.9711 104.064 78.6335 103.389 78.5772V78.5772Z" fill="#A2DE96"/>
<path d="M156.781 54.4443L93.3002 49.1539C92.5619 49.0925 91.8193 49.1853 91.1149 49.427C90.4105 49.6688 89.7581 50.0547 89.1949 50.5628C88.6317 51.071 88.1687 51.6913 87.8325 52.3884C87.4962 53.0855 87.2932 53.8458 87.2351 54.6258L84.7938 87.2965C84.6764 88.8722 85.1562 90.4326 86.1277 91.6347C87.0992 92.8368 88.4828 93.5821 89.9743 93.7067L153.455 98.9971C154.193 99.0586 154.936 98.9657 155.64 98.724C156.344 98.4822 156.997 98.0963 157.56 97.5882C158.123 97.0801 158.586 96.4597 158.922 95.7626C159.259 95.0655 159.462 94.3052 159.52 93.5252L161.84 62.473L161.887 61.8386L161.96 60.8514C162.019 60.0714 161.931 59.287 161.702 58.5428C161.473 57.7987 161.108 57.1095 160.627 56.5145C160.146 55.9196 159.558 55.4306 158.899 55.0753C158.239 54.7201 157.519 54.5057 156.781 54.4443V54.4443ZM154.906 82.8697L154.504 88.2521C154.43 89.2027 154.003 90.0839 153.317 90.7031C152.63 91.3222 151.739 91.6289 150.839 91.5561L142.346 90.8492C141.446 90.7715 140.612 90.3206 140.026 89.5951C139.44 88.8695 139.149 87.9283 139.218 86.9773L139.621 81.5949C139.694 80.6443 140.121 79.7633 140.808 79.1443C141.495 78.5252 142.386 78.2184 143.286 78.2909L151.776 78.9986C152.675 79.0766 153.51 79.5273 154.096 80.2525C154.682 80.9777 154.974 81.9185 154.906 82.8697V82.8697ZM88.7561 80.063C88.822 79.1921 89.2122 78.3843 89.8412 77.8169C90.4702 77.2495 91.2865 76.9688 92.1111 77.0365L103.433 77.9806C103.842 78.0139 104.241 78.1321 104.606 78.3283C104.972 78.5246 105.298 78.795 105.564 79.1242C105.831 79.4534 106.034 79.8349 106.161 80.2469C106.288 80.6589 106.337 81.0934 106.305 81.5254C106.273 81.9574 106.161 82.3786 105.975 82.7648C105.789 83.151 105.533 83.4946 105.221 83.7762C104.909 84.0577 104.548 84.2715 104.158 84.4055C103.768 84.5394 103.356 84.5908 102.947 84.5568L102.942 84.5584L91.6197 83.6142C91.2108 83.5801 90.8123 83.4611 90.447 83.2641C90.0816 83.0671 89.7567 82.7959 89.4907 82.466C89.2247 82.1362 89.0229 81.7541 88.8969 81.3418C88.7708 80.9295 88.723 80.4949 88.7561 80.063V80.063ZM91.1799 53.4414L91.1025 53.1068L91.4282 53.0753C91.5555 53.0608 94.5672 52.7752 96.9116 54.5443C99.256 56.3134 99.9749 59.4172 100.006 59.547L100.081 59.8824L99.7557 59.917C99.2944 59.9532 98.8312 59.95 98.3704 59.9073C96.9047 59.8167 95.4891 59.3116 94.2715 58.4449C91.9271 56.6758 91.2082 53.572 91.1799 53.4414V53.4414Z" fill="#A2DE96"/>
<path d="M145.382 86.4394L141.702 86.1327C141.44 86.1114 141.18 86.2009 140.98 86.3817C140.78 86.5624 140.656 86.8197 140.635 87.0969C140.614 87.3741 140.698 87.6487 140.869 87.8604C141.04 88.072 141.283 88.2035 141.546 88.2259L145.225 88.5325C145.488 88.5539 145.748 88.4644 145.948 88.2836C146.148 88.1028 146.272 87.8456 146.293 87.5684C146.313 87.2911 146.229 87.0165 146.058 86.8048C145.887 86.5932 145.644 86.4617 145.382 86.4394V86.4394Z" fill="#A2DE96"/>
<path d="M152.175 87.0055L148.496 86.6989C148.233 86.6777 147.974 86.7673 147.774 86.948C147.574 87.1288 147.45 87.3859 147.429 87.6631C147.408 87.9402 147.493 88.2147 147.663 88.4263C147.834 88.6379 148.077 88.7694 148.339 88.792L152.019 89.0986C152.281 89.1198 152.541 89.0301 152.741 88.8494C152.941 88.6686 153.065 88.4115 153.085 88.1344C153.106 87.8573 153.022 87.5828 152.851 87.3712C152.681 87.1596 152.438 87.028 152.175 87.0055V87.0055Z" fill="#A2DE96"/>
<path d="M145.583 83.7482L141.903 83.4415C141.641 83.4204 141.381 83.51 141.181 83.6907C140.981 83.8715 140.857 84.1286 140.837 84.4057C140.816 84.6829 140.9 84.9573 141.071 85.169C141.241 85.3806 141.484 85.5121 141.747 85.5347L145.426 85.8413C145.689 85.8627 145.949 85.7732 146.149 85.5924C146.349 85.4116 146.473 85.1544 146.494 84.8771C146.514 84.5999 146.43 84.3253 146.259 84.1136C146.088 83.902 145.845 83.7705 145.583 83.7482V83.7482Z" fill="#A2DE96"/>
<path d="M152.376 84.3143L148.696 84.0076C148.434 83.9863 148.174 84.0758 147.974 84.2565C147.774 84.4373 147.65 84.6945 147.629 84.9718C147.609 85.249 147.693 85.5236 147.864 85.7353C148.034 85.9469 148.278 86.0784 148.54 86.1007L152.22 86.4074C152.482 86.4288 152.742 86.3393 152.942 86.1585C153.142 85.9777 153.266 85.7205 153.287 85.4432C153.308 85.166 153.223 84.8914 153.053 84.6797C152.882 84.468 152.639 84.3366 152.376 84.3143V84.3143Z" fill="#A2DE96"/>
<path d="M145.784 81.0571L142.104 80.7504C141.841 80.729 141.582 80.8186 141.382 80.9993C141.181 81.1801 141.057 81.4373 141.037 81.7146C141.016 81.9918 141.1 82.2664 141.271 82.4781C141.442 82.6898 141.685 82.8212 141.948 82.8435L145.627 83.1502C145.89 83.1714 146.149 83.0817 146.349 82.901C146.549 82.7202 146.673 82.4631 146.694 82.186C146.714 81.9089 146.63 81.6344 146.46 81.4227C146.289 81.2111 146.046 81.0796 145.784 81.0571V81.0571Z" fill="#A2DE96"/>
<path d="M152.577 81.6232L148.897 81.3165C148.635 81.2954 148.375 81.385 148.175 81.5657C147.976 81.7465 147.852 82.0036 147.831 82.2807C147.81 82.5579 147.894 82.8323 148.065 83.044C148.236 83.2556 148.479 83.3871 148.741 83.4096L152.421 83.7163C152.683 83.7375 152.943 83.6478 153.143 83.4671C153.343 83.2863 153.467 83.0292 153.487 82.7521C153.508 82.475 153.424 82.2005 153.253 81.9889C153.082 81.7772 152.839 81.6457 152.577 81.6232V81.6232Z" fill="#A2DE96"/>
<path d="M86.2914 64.9344L86.2441 65.5704L160.762 71.7542L160.809 71.1182L86.2914 64.9344Z" fill="white"/>
<path d="M161.887 61.8386L161.84 62.4732L159.246 62.2583L131.615 59.9654L131.665 59.3302L159.293 61.6237L161.887 61.8386Z" fill="#3F3D56"/>
<path d="M70.7902 55.0955C70.7902 55.0955 66.7563 73.0877 71.6866 73.0877C76.6169 73.0877 88.2703 52.7281 88.2703 52.7281L84.2364 47.5198L76.996 58.1389L76.6168 52.7281L70.7902 55.0955Z" fill="#A0616A"/>
<path d="M87.1953 53.5102C89.3626 53.5102 91.1196 51.6541 91.1196 49.3646C91.1196 47.075 89.3626 45.219 87.1953 45.219C85.028 45.219 83.271 47.075 83.271 49.3646C83.271 51.6541 85.028 53.5102 87.1953 53.5102Z" fill="#A0616A"/>
<path d="M80.7782 39.9442L78.0889 37.1033C78.0889 37.1033 72.7104 40.4176 72.2622 43.732C71.814 47.0464 69.573 57.463 69.573 57.463L77.8648 58.1732L80.5541 53.9118L80.7782 39.9442Z" fill="#E6E6E6"/>
</svg>
